<?xml version="1.0" standalone="no"?>
<!DOCTYPE svg PUBLIC "-//W3C//DTD SVG 20010904//EN"
 "http://www.w3.org/TR/2001/REC-SVG-20010904/DTD/svg10.dtd">
<svg version="1.0" xmlns="http://www.w3.org/2000/svg"
 width="1004.000000pt" height="591.000000pt" viewBox="0 0 1004.000000 591.000000"
 preserveAspectRatio="xMidYMid meet">
<metadata>
Created by potrace 1.16, written by Peter Selinger 2001-2019
</metadata>
<g transform="translate(0.000000,591.000000) scale(0.100000,-0.100000)"
fill="#000000" stroke="none">
<path d="M2900 4125 l0 -225 145 0 145 0 0 45 0 45 -90 0 -90 0 0 180 0 180
-55 0 -55 0 0 -225z"/>
<path d="M5365 4338 c-47 -134 -145 -423 -145 -430 0 -5 26 -8 58 -6 57 3 57
3 66 41 l10 37 86 0 87 0 12 -40 12 -40 58 0 58 0 -73 216 c-41 119 -77 220
-80 225 -8 14 -144 11 -149 -3z"/>
<path d="M4883 4300 c-6 -32 -28 -50 -62 -50 -18 0 -21 -6 -21 -40 0 -36 3
-40 24 -40 23 0 24 -2 28 -107 5 -148 28 -178 134 -171 l49 3 3 51 3 50 -37
-4 c-48 -6 -54 5 -54 101 l0 77 45 0 45 0 0 45 0 45 -45 0 c-45 0 -45 0 -45
35 0 32 -2 35 -30 35 -26 0 -31 -5 -37 -30z"/>
<path d="M6044 4296 c-5 -29 -12 -36 -38 -42 -36 -8 -46 -19 -46 -56 0 -23 4
-28 25 -28 24 0 25 -2 25 -77 1 -103 13 -153 46 -181 22 -19 35 -22 88 -20
l61 3 3 51 3 51 -43 -1 -43 -1 -3 88 -3 87 41 0 40 0 0 45 0 45 -40 0 c-39 0
-40 1 -40 35 0 33 -2 35 -35 35 -31 0 -35 -3 -41 -34z"/>
<path d="M6850 4300 c0 -31 -22 -50 -59 -50 -18 0 -21 -6 -21 -40 0 -36 3 -40
25 -40 l25 0 0 -102 c0 -152 24 -183 136 -176 l49 3 3 50 3 50 -43 0 -43 0 -3
88 -3 87 46 0 45 0 0 45 0 45 -45 0 c-45 0 -45 0 -45 35 0 33 -2 35 -35 35
-32 0 -35 -2 -35 -30z"/>
<path d="M3304 4246 c-35 -16 -74 -60 -74 -86 0 -11 14 -21 40 -29 40 -12 42
-11 69 18 32 35 70 40 96 15 31 -32 13 -44 -99 -65 -81 -15 -116 -49 -116
-114 0 -66 31 -95 102 -95 60 0 90 16 119 64 l19 31 0 -42 0 -43 48 0 48 0 -4
123 c-4 143 -13 177 -53 212 -26 21 -40 25 -97 25 -37 -1 -81 -7 -98 -14z"/>
<path d="M3620 4148 c1 -168 28 -218 120 -218 56 0 78 14 101 63 l19 42 0 -33
c0 -44 -23 -96 -51 -116 -31 -21 -74 -20 -128 4 -24 11 -44 20 -46 20 -7 0
-25 -82 -19 -91 13 -22 75 -39 142 -39 55 0 76 5 102 23 75 51 92 112 88 318
l-3 134 -52 3 -53 3 0 -83 c0 -97 -20 -151 -59 -156 -13 -2 -28 1 -35 8 -6 6
-13 58 -16 118 l-5 107 -52 3 -53 3 0 -113z"/>
<path d="M4090 4243 c-119 -61 -119 -275 0 -336 51 -26 163 -20 208 11 49 35
66 76 66 157 0 81 -17 122 -66 157 -45 31 -157 37 -208 11z m140 -88 c34 -37
40 -120 10 -157 -28 -36 -72 -37 -105 -3 -21 20 -25 34 -25 80 0 46 4 60 25
80 31 32 65 32 95 0z"/>
<path d="M4420 4133 c0 -147 10 -194 47 -223 40 -31 122 -28 157 6 14 15 30
41 35 58 8 28 9 27 10 -21 l1 -53 45 0 45 0 0 180 0 180 -55 0 -55 0 0 -107
c0 -91 -3 -113 -20 -141 -17 -28 -25 -33 -53 -30 -43 4 -56 43 -56 176 l-1
102 -50 0 -50 0 0 -127z"/>
<path d="M5710 4080 l0 -180 54 0 54 0 4 105 c3 92 6 107 25 127 17 16 33 22
63 21 l40 -2 0 55 0 54 -39 0 c-49 0 -86 -30 -100 -80 -9 -33 -9 -32 -10 23
l-1 57 -45 0 -45 0 0 -180z"/>
<path d="M6260 4081 l0 -181 55 0 55 0 -2 178 -3 177 -52 3 -53 3 0 -180z"/>
<path d="M6500 4253 c-8 -3 -27 -17 -42 -31 -22 -20 -28 -35 -28 -69 0 -57 29
-87 106 -108 106 -30 109 -31 109 -51 0 -16 -8 -20 -47 -22 -40 -3 -52 1 -74
23 -24 24 -28 25 -65 14 -43 -13 -44 -16 -27 -54 18 -41 76 -65 153 -65 111 0
165 37 165 113 0 51 -32 81 -106 102 -106 30 -109 31 -109 51 0 15 8 20 37 22
42 4 78 -12 78 -33 0 -18 2 -18 51 -3 25 7 39 17 39 27 0 27 -30 62 -66 77
-32 14 -144 18 -174 7z"/>
<path d="M3133 3570 c-84 -20 -128 -90 -121 -195 7 -109 78 -172 181 -162 51
4 88 26 121 71 17 22 21 42 21 109 0 70 -3 87 -23 115 -38 53 -111 78 -179 62z
m90 -90 c32 -26 44 -79 28 -131 -13 -43 -35 -59 -79 -59 -56 0 -95 76 -72 145
21 63 75 82 123 45z"/>
<path d="M3511 3570 c-85 -20 -124 -81 -119 -187 5 -107 54 -163 150 -170 80
-6 143 34 163 105 6 20 3 22 -35 22 -33 0 -46 -5 -62 -25 -21 -27 -64 -33 -98
-15 -25 14 -44 79 -36 124 7 39 46 76 80 76 27 0 66 -27 66 -46 0 -10 13 -14
46 -14 42 0 45 1 38 23 -14 46 -35 77 -62 90 -38 20 -91 26 -131 17z"/>
<path d="M4185 3565 c-54 -19 -75 -48 -75 -100 0 -36 5 -48 31 -69 17 -14 36
-26 42 -26 28 0 88 -22 103 -37 15 -16 15 -18 -6 -35 -30 -25 -56 -23 -86 7
-34 34 -94 36 -94 2 0 -53 63 -97 140 -97 107 0 166 72 128 154 -12 27 -70 60
-125 71 -68 14 -65 65 4 65 26 0 36 -5 40 -20 4 -16 14 -20 48 -20 l44 0 -9
31 c-16 54 -39 73 -105 83 -24 3 -56 0 -80 -9z"/>
<path d="M6055 3569 c-76 -18 -118 -81 -119 -175 0 -82 26 -132 84 -161 55
-28 109 -29 160 -3 38 20 70 62 70 95 0 27 -68 20 -92 -10 -25 -32 -86 -35
-112 -6 -20 22 -32 88 -22 125 9 36 45 66 78 66 27 0 68 -30 68 -50 0 -5 18
-10 40 -10 36 0 40 3 40 25 0 26 -51 91 -78 99 -43 12 -80 13 -117 5z"/>
<path d="M7243 3570 c-84 -20 -128 -90 -121 -195 7 -109 78 -172 181 -162 51
4 88 26 121 71 17 22 21 42 21 109 0 70 -3 87 -23 115 -38 53 -111 78 -179 62z
m90 -90 c32 -26 44 -79 28 -131 -13 -43 -35 -59 -79 -59 -56 0 -95 76 -72 145
21 63 75 82 123 45z"/>
<path d="M2240 3395 l0 -175 40 0 40 0 0 175 0 175 -40 0 -40 0 0 -175z"/>
<path d="M2380 3395 l0 -175 40 0 40 0 0 102 0 102 71 -102 c69 -100 71 -102
110 -102 l39 0 0 175 0 175 -45 0 -44 0 -3 -97 -3 -98 -65 97 c-63 94 -66 98
-102 98 l-38 0 0 -175z"/>
<path d="M2730 3395 l0 -175 45 0 45 0 0 70 0 70 70 0 70 0 0 35 0 35 -70 0
-70 0 0 35 0 35 75 0 75 0 0 35 0 35 -120 0 -120 0 0 -175z"/>
<path d="M3760 3424 l0 -146 30 -28 c59 -55 170 -52 227 5 l33 33 0 141 0 141
-40 0 -40 0 0 -123 c0 -139 -8 -157 -68 -157 -55 0 -62 17 -62 156 l0 124 -40
0 -40 0 0 -146z"/>
<path d="M4540 3395 l0 -175 40 0 40 0 0 54 0 54 65 4 c54 3 70 9 91 30 34 33
43 102 20 146 -25 48 -62 62 -166 62 l-90 0 0 -175z"/>
<path d="M4850 3443 c0 -148 13 -186 70 -216 47 -24 139 -19 178 10 45 34 52
58 52 201 l0 132 -40 0 -40 0 0 -118 c0 -140 -9 -162 -69 -162 -20 0 -42 5
-49 12 -8 8 -12 54 -12 140 l0 128 -45 0 -45 0 0 -127z"/>
<path d="M5210 3396 l0 -176 106 0 c103 0 106 1 135 29 40 41 41 100 1 132
l-27 23 24 24 c19 19 22 30 18 60 -11 65 -33 77 -152 80 l-105 4 0 -176z"/>
<path d="M5530 3395 l0 -175 115 0 115 0 0 35 0 35 -75 0 -75 0 0 140 0 140
-40 0 -40 0 0 -175z"/>
<path d="M5800 3395 l0 -175 40 0 40 0 0 175 0 175 -40 0 -40 0 0 -175z"/>
<path d="M6369 3473 c-17 -54 -45 -133 -60 -176 l-29 -78 47 3 c44 3 48 5 57
36 9 32 9 32 71 32 62 0 62 0 71 -32 9 -31 13 -33 57 -36 l47 -3 -39 108 c-21
59 -48 138 -60 176 l-23 67 -53 0 -53 0 -33 -97z"/>
<path d="M6650 3535 l0 -35 55 0 55 0 0 -140 0 -140 40 0 40 0 0 140 0 140 50
0 50 0 0 35 0 35 -145 0 -145 0 0 -35z"/>
<path d="M6990 3395 l0 -175 40 0 40 0 0 175 0 175 -40 0 -40 0 0 -175z"/>
<path d="M7500 3395 l0 -175 45 0 44 0 3 96 3 96 65 -96 c62 -93 66 -96 102
-96 l38 0 0 175 0 175 -40 0 -39 0 -3 -101 -3 -101 -69 101 c-67 99 -70 101
-107 101 l-39 0 0 -175z"/>
<path d="M2791 2887 c-27 -13 -37 -29 -46 -69 -3 -16 -12 -28 -20 -28 -10 0
-15 -10 -15 -30 0 -20 5 -30 15 -30 12 0 15 -18 15 -100 l0 -100 45 0 45 0 0
100 0 100 25 0 c21 0 25 5 25 30 0 26 -4 30 -26 30 -19 0 -25 5 -22 18 2 9 13
18 25 20 25 4 41 51 21 63 -19 12 -59 11 -87 -4z"/>
<path d="M2983 2890 c-26 -11 -43 -40 -43 -74 0 -19 -5 -26 -20 -26 -16 0 -20
-7 -20 -30 0 -23 4 -30 20 -30 19 0 20 -7 20 -100 l0 -100 40 0 40 0 0 100 0
100 25 0 c21 0 25 5 25 30 0 26 -4 30 -26 30 -33 0 -30 33 4 38 27 4 42 49 21
63 -18 11 -57 10 -86 -1z"/>
<path d="M7351 2887 c-27 -13 -37 -29 -46 -69 -3 -16 -12 -28 -20 -28 -10 0
-15 -10 -15 -30 0 -20 5 -30 15 -30 12 0 15 -18 15 -100 l0 -100 45 0 45 0 0
100 0 100 25 0 c21 0 25 5 25 30 0 26 -4 30 -26 30 -19 0 -25 5 -22 18 2 9 13
18 25 20 25 4 41 51 21 63 -19 12 -59 11 -87 -4z"/>
<path d="M1175 2840 c-49 -97 -50 -246 -3 -339 22 -42 27 -46 66 -49 46 -3 48
-1 27 31 -8 12 -22 51 -31 87 -22 85 -14 181 20 257 15 30 26 57 26 59 0 2
-18 4 -40 4 -38 0 -41 -3 -65 -50z"/>
<path d="M2465 2879 c-76 -18 -118 -81 -119 -175 0 -82 26 -132 84 -161 110
-57 228 3 246 124 15 99 -37 189 -121 212 -22 6 -42 10 -45 10 -3 -1 -23 -5
-45 -10z m80 -75 c45 -18 61 -131 24 -178 -16 -20 -29 -26 -58 -26 -47 0 -71
24 -78 79 -13 94 39 152 112 125z"/>
<path d="M7711 2880 c-85 -20 -124 -81 -119 -187 5 -107 54 -163 150 -170 80
-6 143 34 163 105 6 20 3 22 -35 22 -33 0 -46 -5 -62 -25 -21 -27 -64 -33 -98
-15 -25 14 -44 79 -36 124 7 39 46 76 80 76 27 0 66 -27 66 -46 0 -10 13 -14
46 -14 42 0 45 1 38 23 -14 46 -35 77 -62 90 -38 20 -91 26 -131 17z"/>
<path d="M8213 2880 c-85 -20 -128 -90 -121 -196 6 -99 58 -154 150 -161 65
-5 112 17 145 66 34 51 30 61 -22 61 -33 0 -45 -4 -45 -15 0 -19 -31 -35 -68
-35 -56 0 -95 76 -72 145 23 69 93 88 132 35 18 -24 29 -30 61 -30 38 0 39 1
32 28 -19 79 -103 123 -192 102z"/>
<path d="M8535 2875 c-54 -19 -75 -48 -75 -100 0 -36 5 -48 31 -69 17 -14 36
-26 42 -26 28 0 88 -22 103 -37 15 -16 15 -18 -6 -35 -30 -25 -56 -23 -86 7
-34 34 -94 36 -94 2 0 -53 63 -97 140 -97 107 0 166 72 128 154 -12 27 -70 60
-125 71 -68 14 -65 65 4 65 26 0 36 -5 40 -20 4 -16 14 -20 48 -20 l44 0 -9
31 c-16 54 -39 73 -105 83 -24 3 -56 0 -80 -9z"/>
<path d="M8760 2885 c0 -3 8 -22 19 -43 49 -99 52 -230 6 -329 -14 -31 -25
-57 -25 -59 0 -2 18 -4 40 -4 38 0 41 3 67 53 26 48 28 61 28 167 0 108 -2
118 -29 168 -27 49 -32 52 -68 52 -21 0 -38 -2 -38 -5z"/>
<path d="M1310 2845 l0 -35 50 0 50 0 0 -140 0 -140 45 0 45 0 0 140 0 140 50
0 50 0 0 35 0 35 -145 0 -145 0 0 -35z"/>
<path d="M1640 2705 l0 -175 40 0 40 0 0 78 c0 105 31 150 74 106 12 -12 16
-36 16 -100 l0 -84 40 0 40 0 0 104 c0 89 -3 107 -20 129 -27 34 -79 44 -119
24 l-31 -15 0 54 0 54 -40 0 -40 0 0 -175z"/>
<path d="M3940 2705 l0 -175 45 0 45 0 0 175 0 175 -45 0 -45 0 0 -175z"/>
<path d="M4200 2705 l0 -175 40 0 40 0 0 55 0 55 50 0 c90 0 133 39 133 120 0
46 -25 87 -64 107 -14 7 -62 13 -111 13 l-88 0 0 -175z"/>
<path d="M4810 2705 l0 -175 40 0 c22 0 40 5 40 11 0 5 10 3 22 -5 36 -25 83
-20 120 13 29 26 33 35 36 97 3 60 1 74 -20 104 -30 45 -81 60 -127 37 l-31
-15 0 54 0 54 -40 0 -40 0 0 -175z"/>
<path d="M5120 2705 l0 -175 40 0 40 0 0 175 0 175 -40 0 -40 0 0 -175z"/>
<path d="M7960 2705 l0 -175 40 0 40 0 0 175 0 175 -40 0 -40 0 0 -175z"/>
<path d="M5970 2825 c0 -28 -4 -35 -20 -35 -16 0 -20 -7 -20 -30 0 -23 4 -30
20 -30 18 0 20 -7 20 -84 0 -80 1 -86 27 -106 19 -14 38 -20 62 -18 31 3 36 7
39 30 3 22 -2 30 -22 38 -24 9 -26 14 -26 75 0 63 1 65 25 65 21 0 25 5 25 30
0 25 -4 30 -25 30 -22 0 -25 4 -25 35 0 34 -1 35 -40 35 -39 0 -40 -1 -40 -35z"/>
<path d="M2001 2783 c-62 -31 -88 -134 -50 -205 28 -52 119 -73 184 -43 26 13
55 49 55 70 0 12 -73 3 -95 -11 -27 -18 -57 -7 -75 26 -10 19 -7 20 80 20 l90
0 0 31 c0 100 -97 157 -189 112z"/>
<path d="M3301 2783 c-45 -22 -76 -89 -67 -146 9 -54 21 -75 59 -97 65 -40
157 -17 183 45 19 46 19 45 -26 45 -29 0 -42 -5 -50 -20 -14 -26 -56 -26 -70
-1 -15 29 -12 87 6 105 21 22 51 20 64 -4 8 -15 21 -20 50 -20 46 0 45 -1 25
46 -24 58 -106 80 -174 47z"/>
<path d="M3713 2785 c-30 -13 -53 -41 -53 -64 0 -14 73 -14 87 0 15 15 58 7
58 -11 0 -10 -15 -17 -49 -22 -67 -9 -100 -35 -104 -81 -3 -29 3 -42 23 -63
23 -23 32 -25 73 -20 26 3 68 5 95 5 l47 0 0 101 c0 56 -5 110 -11 122 -13 23
-67 48 -106 48 -15 -1 -42 -7 -60 -15z"/>
<path d="M5441 2783 c-45 -22 -76 -89 -67 -146 9 -54 21 -75 59 -97 65 -40
157 -17 183 45 19 46 19 45 -26 45 -29 0 -42 -5 -50 -20 -14 -26 -56 -26 -70
-1 -15 29 -12 87 6 105 21 22 51 20 64 -4 8 -15 21 -20 50 -20 46 0 45 -1 25
46 -24 58 -106 80 -174 47z"/>
<path d="M5723 2785 c-30 -13 -53 -41 -53 -64 0 -6 18 -11 40 -11 22 0 40 5
40 10 0 14 57 13 66 -1 9 -16 -11 -26 -68 -33 -62 -9 -88 -33 -88 -85 0 -55
38 -85 95 -77 22 4 64 6 93 6 l52 -1 0 101 c0 56 -5 110 -11 122 -13 23 -67
48 -106 48 -15 -1 -42 -7 -60 -15z"/>
<path d="M6353 2793 c-12 -2 -36 -20 -53 -39 -26 -30 -30 -42 -30 -92 0 -73
24 -115 75 -132 55 -18 113 -7 148 29 26 25 31 39 34 88 7 109 -62 168 -174
146z"/>
<path d="M6678 2786 c-16 -8 -28 -11 -28 -5 0 5 -18 9 -40 9 l-40 0 0 -130 0
-130 40 0 40 0 0 78 c0 105 31 150 74 106 12 -12 16 -36 16 -100 l0 -84 40 0
40 0 0 104 c0 94 -2 107 -22 131 -28 32 -83 42 -120 21z"/>
<path d="M7053 2785 c-51 -22 -75 -69 -70 -138 4 -75 41 -117 109 -124 92 -11
148 43 148 140 0 63 -23 101 -76 123 -42 17 -70 17 -111 -1z"/>
<path d="M3110 2660 l0 -130 40 0 40 0 0 130 0 130 -40 0 -40 0 0 -130z"/>
<path d="M3530 2660 l0 -130 40 0 40 0 0 130 0 130 -40 0 -40 0 0 -130z"/>
<path d="M4510 2683 c1 -112 6 -130 47 -151 32 -18 67 -14 97 9 21 17 26 18
26 5 0 -12 10 -16 35 -16 l35 0 0 130 0 130 -40 0 -40 0 0 -90 c0 -79 -2 -91
-20 -100 -14 -8 -26 -8 -40 0 -18 9 -20 21 -20 100 l0 90 -40 0 -40 0 0 -107z"/>
<path d="M5250 2660 l0 -130 40 0 40 0 0 130 0 130 -40 0 -40 0 0 -130z"/>
<path d="M6140 2660 l0 -130 40 0 40 0 0 130 0 130 -40 0 -40 0 0 -130z"/>
<path d="M2195 2268 c-2 -7 -11 -58 -20 -113 -8 -55 -18 -112 -21 -127 -5 -23
-2 -28 15 -28 22 0 25 6 42 110 l12 75 14 -55 c33 -130 33 -130 54 -130 12 0
29 15 45 43 14 23 36 60 50 82 l25 40 -5 -42 c-3 -24 -9 -61 -12 -83 -6 -36
-4 -40 15 -40 11 0 21 3 21 8 0 4 9 59 20 122 25 146 25 150 -2 150 -19 0 -35
-21 -82 -105 -33 -58 -62 -105 -65 -105 -4 0 -17 47 -30 105 -22 97 -26 105
-48 105 -13 0 -25 -6 -28 -12z"/>
<path d="M2541 2147 c-39 -74 -71 -137 -71 -141 0 -3 9 -6 19 -6 11 0 28 15
41 35 20 32 26 35 70 35 49 0 60 -9 60 -51 0 -14 7 -19 25 -19 22 0 24 3 18
33 -4 17 -16 79 -28 137 -18 91 -24 105 -42 108 -18 3 -32 -18 -92 -131z"/>
<path d="M2790 2273 c0 -5 -9 -60 -20 -123 -25 -144 -25 -150 0 -150 14 0 21
9 25 38 10 58 13 62 42 62 25 0 30 -6 46 -50 15 -42 22 -50 43 -50 27 0 27 6
-1 74 -12 28 -11 32 17 58 26 24 29 33 26 75 -2 39 -7 50 -28 60 -27 14 -150
18 -150 6z"/>
<path d="M3135 2248 c-3 -18 -14 -81 -24 -140 l-18 -108 22 0 c21 0 24 8 35
83 7 45 16 88 19 94 4 8 27 -26 56 -82 41 -77 54 -95 73 -95 12 0 22 1 22 3 0
1 9 54 20 117 25 145 25 160 1 160 -15 0 -20 -13 -30 -77 -22 -138 -18 -137
-78 -24 -60 111 -87 130 -98 69z"/>
<path d="M3406 2168 c-10 -62 -20 -125 -23 -140 l-5 -28 73 0 c121 0 172 48
173 162 1 50 -3 61 -27 85 -24 24 -36 28 -100 31 l-73 4 -18 -114z m155 53
c29 -23 31 -79 5 -129 -19 -37 -39 -49 -96 -58 l-43 -7 7 44 c4 24 11 72 17
107 l11 62 38 0 c22 0 47 -8 61 -19z"/>
<path d="M3697 2258 c-3 -13 -12 -63 -19 -111 -10 -76 -10 -92 3 -115 32 -58
151 -52 189 10 17 28 24 60 45 196 6 38 5 42 -14 42 -22 0 -24 -4 -41 -110
-14 -87 -27 -115 -56 -129 -34 -15 -48 -14 -74 7 l-23 18 17 96 c20 119 20
118 -3 118 -11 0 -21 -9 -24 -22z"/>
<path d="M4020 2258 c-47 -33 -70 -82 -70 -150 0 -46 5 -62 24 -85 21 -24 32
-28 80 -29 31 0 62 -6 68 -12 7 -7 23 -12 36 -12 l23 0 -20 29 c-20 28 -20 29
-2 45 26 23 45 98 38 149 -11 82 -102 116 -177 65z m120 -45 c25 -32 23 -87
-5 -130 -16 -24 -19 -25 -30 -10 -7 9 -22 17 -34 17 -22 0 -28 -14 -11 -25 6
-3 10 -13 10 -22 0 -20 -49 -9 -67 14 -31 40 -7 135 41 164 43 26 71 24 96 -8z"/>
<path d="M4275 2268 c-8 -27 -27 -161 -27 -196 0 -70 78 -104 157 -66 41 19
61 60 75 149 6 39 13 83 16 98 5 26 3 28 -17 25 -22 -3 -25 -12 -40 -102 -14
-85 -20 -103 -43 -123 -33 -28 -56 -29 -87 -5 -22 18 -22 20 -10 98 7 43 15
91 18 107 5 23 2 27 -16 27 -12 0 -23 -6 -26 -12z"/>
<path d="M4555 2248 c-3 -18 -14 -81 -24 -140 l-18 -108 89 0 c72 0 88 3 88
15 0 12 -14 15 -65 15 l-64 0 5 33 c10 57 10 57 74 57 53 0 60 2 60 20 0 18
-7 20 -58 20 l-59 0 6 38 6 37 68 3 c59 3 67 5 67 22 0 18 -7 20 -85 20 l-84
0 -6 -32z"/>
<path d="M4928 2264 c-32 -17 -48 -43 -48 -77 0 -31 24 -52 78 -68 62 -18 73
-36 39 -65 -37 -31 -72 -31 -93 1 -22 33 -54 33 -54 1 0 -70 126 -89 182 -27
49 55 34 101 -41 126 -65 21 -80 39 -56 65 26 29 95 25 95 -6 0 -8 10 -14 25
-14 32 0 33 23 0 55 -28 29 -84 33 -127 9z"/>
<path d="M5120 2260 c0 -17 7 -20 40 -20 25 0 40 -5 40 -12 0 -7 -8 -61 -19
-120 l-18 -108 24 0 c12 0 23 3 23 8 0 9 29 180 35 209 4 18 13 22 47 25 31 2
44 8 46 21 3 15 -7 17 -107 17 -104 0 -111 -1 -111 -20z"/>
<path d="M5391 2147 c-39 -74 -71 -137 -71 -141 0 -3 9 -6 19 -6 11 0 28 15
41 35 20 32 26 35 70 35 49 0 60 -9 60 -51 0 -14 7 -19 25 -19 22 0 24 3 18
33 -4 17 -16 79 -28 137 -18 91 -24 105 -42 108 -18 3 -32 -18 -92 -131z"/>
<path d="M5627 2273 c-20 -19 -5 -33 36 -33 l44 0 -18 -107 c-23 -134 -23
-133 1 -133 11 0 20 1 20 3 0 1 9 54 20 117 11 63 20 116 20 118 0 1 20 2 45
2 38 0 45 3 45 20 0 19 -7 20 -103 20 -57 0 -107 -3 -110 -7z"/>
<path d="M5885 2268 c-2 -7 -11 -58 -20 -113 -8 -55 -18 -112 -21 -127 l-6
-28 91 0 c74 0 91 3 91 15 0 12 -14 15 -66 15 -64 0 -66 1 -60 23 3 12 6 32 6
45 0 21 4 22 65 22 58 0 65 2 65 20 0 18 -7 20 -61 20 -52 0 -60 2 -55 16 3 9
6 27 6 40 0 23 3 24 70 24 63 0 70 2 70 20 0 18 -7 20 -85 20 -60 0 -87 -4
-90 -12z"/>
<path d="M6262 2260 c-61 -37 -91 -153 -57 -219 37 -72 168 -61 204 17 14 30
14 32 -5 32 -9 0 -32 -13 -51 -30 -41 -36 -66 -38 -98 -5 -31 30 -32 72 -6
124 34 65 120 81 141 26 6 -15 17 -25 30 -25 30 0 25 36 -9 71 -36 36 -98 40
-149 9z"/>
<path d="M6540 2258 c-47 -33 -70 -82 -70 -150 0 -75 26 -108 90 -115 36 -4
52 0 79 19 61 41 76 71 76 150 0 64 -2 72 -28 94 -37 32 -101 33 -147 2z m119
-44 c50 -64 -5 -178 -86 -178 -42 0 -63 23 -63 69 0 52 20 96 54 116 43 26 71
24 95 -7z"/>
<path d="M6790 2273 c0 -5 -9 -60 -20 -123 -28 -164 -35 -150 65 -150 69 0 85
3 85 15 0 12 -13 15 -60 15 -70 0 -67 -7 -45 120 20 115 20 130 -5 130 -11 0
-20 -3 -20 -7z"/>
<path d="M7005 2268 c-2 -7 -11 -58 -20 -113 -8 -55 -18 -112 -21 -127 l-6
-28 85 0 c66 0 86 3 91 15 4 12 -6 15 -59 15 -36 0 -65 1 -65 3 0 1 9 54 20
117 11 63 20 118 20 123 0 12 -40 8 -45 -5z"/>
<path d="M7220 2273 c0 -5 -9 -60 -20 -123 -29 -166 -35 -151 67 -148 58 2 88
7 91 16 3 9 -14 12 -62 12 -62 0 -66 1 -66 23 0 59 8 67 70 67 54 0 70 8 70
36 0 2 -27 4 -60 4 -64 0 -68 4 -54 58 6 20 12 22 69 22 54 0 63 3 68 20 5 19
0 20 -84 20 -49 0 -89 -3 -89 -7z"/>
<path d="M7490 2257 c-50 -33 -73 -79 -74 -149 -1 -55 1 -62 32 -89 70 -63
187 -13 207 89 l7 32 -61 0 c-54 0 -61 -2 -61 -19 0 -16 8 -20 37 -23 l37 -3
-25 -28 c-55 -62 -129 -38 -129 43 0 72 45 130 101 130 26 0 59 -27 59 -48 0
-7 9 -12 20 -12 30 0 26 45 -6 75 -36 33 -98 34 -144 2z"/>
<path d="M7730 2273 c0 -5 -9 -60 -20 -123 -29 -166 -35 -151 67 -148 58 2 88
7 91 16 3 9 -14 12 -62 12 -62 0 -66 1 -66 23 0 59 8 67 70 67 54 0 70 8 70
36 0 2 -27 4 -60 4 -64 0 -68 4 -54 58 6 20 12 22 69 22 54 0 63 3 68 20 5 19
0 20 -84 20 -49 0 -89 -3 -89 -7z"/>
<path d="M3910 1770 c-11 -11 -20 -29 -20 -40 0 -24 28 -27 36 -5 12 29 40 36
65 16 l22 -18 -21 -34 c-11 -19 -39 -52 -61 -74 -23 -21 -41 -47 -41 -57 0
-16 10 -18 80 -18 63 0 80 3 80 14 0 11 -15 16 -52 18 l-52 3 47 53 c37 41 47
60 47 87 0 46 -29 75 -75 75 -22 0 -43 -8 -55 -20z"/>
<path d="M4123 1775 c-44 -31 -54 -156 -18 -211 18 -27 74 -41 104 -25 37 20
54 67 49 139 -4 55 -8 68 -32 88 -31 28 -72 31 -103 9z m85 -50 c17 -37 15
-107 -4 -133 -20 -29 -54 -25 -72 8 -15 30 -11 112 8 135 20 24 55 19 68 -10z"/>
<path d="M4320 1770 c-11 -11 -20 -29 -20 -40 0 -24 28 -27 36 -5 12 29 40 36
65 16 l22 -18 -21 -34 c-11 -19 -39 -52 -61 -74 -23 -21 -41 -47 -41 -57 0
-16 10 -18 80 -18 63 0 80 3 80 14 0 11 -15 16 -52 18 l-52 3 47 53 c37 41 47
60 47 87 0 46 -29 75 -75 75 -22 0 -43 -8 -55 -20z"/>
<path d="M4525 1765 c-14 -13 -25 -29 -25 -35 0 -16 30 -12 57 10 19 15 30 17
44 9 34 -18 17 -69 -23 -69 -30 0 -20 -27 15 -36 59 -18 34 -85 -26 -70 -15 3
-27 13 -27 21 0 8 -9 15 -20 15 -30 0 -25 -34 8 -60 32 -26 91 -23 123 6 24
21 25 71 2 96 -13 14 -14 21 -5 30 7 7 12 25 12 40 0 65 -87 92 -135 43z"/>
<path d="M5073 1706 c-24 -21 -28 -32 -28 -76 0 -44 4 -55 28 -76 46 -39 117
-25 130 26 6 25 -24 28 -43 4 -8 -8 -25 -14 -39 -12 -54 6 -54 110 0 116 14 2
31 -4 39 -12 19 -24 49 -21 43 4 -13 51 -84 65 -130 26z"/>
<path d="M5240 1645 c0 -79 2 -86 25 -101 17 -11 33 -14 52 -9 16 5 38 7 51 6
21 -2 22 0 22 93 0 89 -1 96 -20 96 -18 0 -20 -7 -20 -61 0 -69 -12 -99 -40
-99 -28 0 -40 30 -40 99 0 48 -3 61 -15 61 -12 0 -15 -16 -15 -85z"/>
<path d="M5705 1704 c-31 -33 -35 -110 -7 -143 35 -43 142 -33 142 14 0 17
-35 21 -45 5 -9 -14 -48 -13 -63 2 -28 28 -13 38 54 38 l67 0 -7 33 c-14 71
-95 101 -141 51z"/>
<path d="M5880 1634 c0 -87 1 -94 20 -94 18 0 20 7 20 63 0 65 11 87 42 87 25
0 38 -31 38 -94 0 -43 3 -56 15 -56 12 0 15 15 15 78 0 98 -10 111 -92 110
l-58 -1 0 -93z"/>
</g>
</svg>
