<?xml version="1.0" standalone="no"?>
<!DOCTYPE svg PUBLIC "-//W3C//DTD SVG 20010904//EN"
 "http://www.w3.org/TR/2001/REC-SVG-20010904/DTD/svg10.dtd">
<svg version="1.0" xmlns="http://www.w3.org/2000/svg"
 width="1004.000000pt" height="591.000000pt" viewBox="0 0 1004.000000 591.000000"
 preserveAspectRatio="xMidYMid meet">
<metadata>
Created by potrace 1.16, written by Peter Selinger 2001-2019
</metadata>
<g transform="translate(0.000000,591.000000) scale(0.100000,-0.100000)"
fill="#000000" stroke="none">
<path d="M3690 4346 l0 -94 -34 34 c-29 29 -41 34 -81 34 -92 0 -145 -64 -145
-176 0 -84 15 -128 56 -163 29 -26 43 -31 87 -31 61 0 93 18 113 64 l13 31 1
-42 0 -43 45 0 45 0 0 240 0 240 -50 0 -50 0 0 -94z m-27 -149 c22 -29 25 -95
5 -126 -7 -11 -24 -25 -38 -29 -50 -18 -90 23 -90 93 0 94 72 131 123 62z"/>
<path d="M2750 4365 l0 -44 102 -3 103 -3 -68 -42 c-63 -39 -67 -45 -67 -78 0
-32 3 -36 20 -30 27 9 126 -13 140 -31 20 -23 15 -66 -10 -86 -45 -37 -140 -7
-140 44 0 16 -4 19 -22 14 -13 -4 -36 -9 -51 -13 -26 -5 -28 -9 -23 -36 15
-77 67 -107 180 -107 133 0 193 50 183 154 -6 62 -42 99 -107 110 l-44 7 55
39 c30 22 57 40 62 40 4 0 7 25 7 55 l0 55 -160 0 -160 0 0 -45z"/>
<path d="M3160 4140 l0 -180 54 0 54 0 4 105 c3 92 6 107 25 127 17 16 33 22
63 21 l40 -2 0 55 0 54 -39 0 c-49 0 -86 -30 -100 -80 -9 -33 -9 -32 -10 23
l-1 57 -45 0 -45 0 0 -180z"/>
<path d="M4020 4140 l0 -180 54 0 54 0 4 105 c3 92 6 107 25 127 17 16 33 22
63 21 l40 -2 0 55 0 54 -39 0 c-49 0 -86 -30 -100 -80 -9 -33 -9 -32 -10 23
l-1 57 -45 0 -45 0 0 -180z"/>
<path d="M4300 4204 c0 -195 30 -254 130 -254 59 0 93 25 114 85 l15 40 0 -57
1 -58 40 0 40 0 0 180 0 180 -50 0 -50 0 0 -87 c0 -135 -23 -193 -75 -193 -44
0 -55 33 -55 162 l0 118 -55 0 -55 0 0 -116z"/>
<path d="M4720 4141 l0 -181 49 0 48 0 5 105 c6 123 22 158 77 163 28 3 33 -1
46 -32 10 -23 15 -70 15 -136 l0 -100 50 0 50 0 0 119 c0 146 -5 174 -40 211
-25 26 -35 30 -85 30 -49 0 -60 -4 -86 -29 -16 -16 -30 -38 -31 -48 0 -10 -4
2 -7 27 -6 45 -6 45 -48 48 l-43 3 0 -180z"/>
<path d="M5137 4313 c-4 -3 -7 -84 -7 -180 l0 -173 55 0 55 0 0 98 c0 120 18
165 67 170 52 5 63 -22 63 -155 l0 -113 55 0 55 0 0 111 c0 136 -13 191 -52
224 -64 54 -174 21 -197 -58 -8 -29 -9 -26 -10 26 l-1 57 -38 0 c-21 0 -42 -3
-45 -7z"/>
<path d="M5622 4303 c-44 -21 -71 -61 -84 -125 -13 -64 -5 -114 25 -159 32
-48 79 -69 155 -69 88 0 142 31 157 91 6 24 3 27 -32 32 -55 10 -63 9 -63 -8
0 -19 -31 -35 -68 -35 -29 0 -63 28 -75 63 -6 16 4 17 120 17 l126 0 -6 50
c-13 112 -63 160 -163 160 -34 0 -73 -7 -92 -17z"/>
<path d="M5940 4141 l0 -181 50 0 50 0 0 86 c0 129 35 183 110 168 l30 -6 0
56 0 56 -44 0 c-54 0 -91 -33 -105 -93 -10 -40 -10 -39 -8 23 l2 65 -42 3 -43
3 0 -180z"/>
<path d="M6370 4193 c0 -147 10 -194 47 -223 40 -31 122 -28 157 6 14 15 30
41 35 58 8 28 9 27 10 -21 l1 -53 45 0 45 0 0 180 0 180 -55 0 -55 0 0 -107
c0 -91 -3 -113 -20 -141 -17 -28 -25 -33 -53 -30 -43 4 -56 43 -56 176 l-1
102 -50 0 -50 0 0 -127z"/>
<path d="M6790 4081 l0 -241 51 0 51 0 -4 94 c-3 91 -3 93 14 65 23 -38 48
-49 108 -49 45 0 56 4 85 33 41 41 59 103 52 178 -9 107 -59 159 -153 159 -42
0 -56 -5 -78 -26 -14 -15 -27 -32 -27 -38 -1 -6 -4 5 -8 24 -6 33 -9 35 -48
38 l-43 3 0 -240z m224 130 c10 -11 20 -37 23 -58 14 -106 -86 -162 -132 -74
-20 40 -19 79 5 119 16 26 26 32 53 32 21 0 41 -8 51 -19z"/>
<path d="M2380 3630 c-47 -11 -90 -61 -90 -104 0 -49 27 -75 105 -101 78 -25
101 -48 71 -71 -29 -21 -64 -17 -90 11 -17 18 -34 25 -60 25 -40 0 -42 -6 -22
-54 30 -71 177 -90 241 -30 20 19 25 32 25 73 0 59 -23 82 -104 106 -66 20
-79 28 -74 51 5 29 73 32 90 5 16 -26 88 -31 88 -6 0 68 -91 116 -180 95z"/>
<path d="M4135 3631 c-70 -17 -95 -45 -95 -106 0 -48 33 -80 106 -100 78 -23
94 -37 69 -65 -25 -27 -61 -25 -91 5 -17 17 -36 25 -59 25 -41 0 -45 -18 -15
-67 42 -69 196 -70 244 -2 9 13 16 41 16 62 0 51 -32 81 -106 102 -72 21 -93
37 -74 59 19 23 77 21 90 -4 8 -15 21 -20 51 -20 40 0 41 1 34 28 -16 65 -91
102 -170 83z"/>
<path d="M2890 3455 l0 -175 40 0 40 0 0 78 c0 105 31 150 74 106 12 -12 16
-36 16 -100 l0 -84 40 0 40 0 0 104 c0 89 -3 107 -20 129 -27 34 -79 44 -119
24 l-31 -15 0 54 0 54 -40 0 -40 0 0 -175z"/>
<path d="M3790 3455 l0 -175 40 0 40 0 0 175 0 175 -40 0 -40 0 0 -175z"/>
<path d="M5020 3576 l0 -54 -31 15 c-46 23 -97 8 -127 -37 -21 -30 -23 -44
-20 -104 3 -62 7 -71 36 -97 37 -33 84 -38 120 -13 12 8 22 10 22 5 0 -6 18
-11 40 -11 l40 0 0 175 0 175 -40 0 -40 0 0 -54z"/>
<path d="M6425 3618 c2 -7 23 -78 45 -158 23 -80 43 -153 46 -162 4 -14 16
-18 48 -18 l43 0 29 107 30 106 30 -104 30 -104 41 -3 41 -3 25 83 c14 46 35
117 47 158 12 41 24 83 26 93 5 14 -2 17 -40 17 -51 0 -46 9 -83 -153 l-18
-79 -30 117 -29 116 -40 -3 -39 -3 -18 -65 c-10 -36 -23 -85 -30 -110 l-11
-45 -27 110 -26 110 -48 3 c-35 2 -46 0 -42 -10z"/>
<path d="M7520 3455 l0 -175 40 0 c40 0 40 0 40 39 0 56 14 58 47 6 27 -43 30
-45 76 -45 26 0 47 3 47 6 0 3 -20 35 -45 71 -25 35 -45 66 -45 69 0 3 20 29
45 57 l45 52 -46 3 c-45 3 -49 1 -85 -40 l-38 -43 -1 88 0 87 -40 0 -40 0 0
-175z"/>
<path d="M4370 3575 c0 -24 -5 -35 -15 -35 -10 0 -15 -10 -15 -30 0 -19 5 -30
14 -30 11 0 15 -21 17 -85 5 -99 15 -115 82 -122 50 -6 57 0 50 40 -4 18 -12
27 -24 27 -17 0 -19 8 -19 70 0 63 2 70 20 70 16 0 20 7 20 30 0 23 -4 30 -20
30 -16 0 -20 7 -20 35 0 35 0 35 -45 35 -45 0 -45 0 -45 -35z"/>
<path d="M5760 3575 c0 -24 -5 -35 -15 -35 -10 0 -15 -10 -15 -30 0 -20 5 -30
15 -30 12 0 15 -16 15 -80 0 -73 3 -83 25 -105 23 -24 65 -32 97 -20 23 9 10
63 -16 67 -19 3 -21 10 -24 71 -3 66 -3 67 23 67 21 0 25 5 25 30 0 25 -4 30
-25 30 -22 0 -25 4 -25 35 0 34 -1 35 -40 35 -39 0 -40 -1 -40 -35z"/>
<path d="M2673 3536 c-51 -23 -75 -70 -70 -139 3 -49 8 -63 35 -90 29 -29 38
-32 93 -32 56 0 63 3 90 33 16 18 29 41 29 52 0 29 -70 29 -88 0 -26 -42 -82
-8 -82 50 0 58 56 92 82 50 18 -29 88 -29 88 0 0 11 -12 33 -27 50 -34 37
-100 48 -150 26z"/>
<path d="M3251 3533 c-45 -22 -76 -89 -67 -146 9 -54 21 -75 59 -97 67 -41
164 -13 193 55 54 130 -63 248 -185 188z"/>
<path d="M3550 3532 c-122 -60 -73 -262 63 -262 80 0 131 54 131 140 0 110
-97 171 -194 122z"/>
<path d="M5211 3533 c-62 -31 -88 -134 -50 -205 28 -52 119 -73 184 -43 26 13
55 49 55 70 0 12 -73 3 -95 -11 -27 -18 -57 -7 -75 26 -10 19 -7 20 80 20 l90
0 0 31 c0 100 -97 157 -189 112z"/>
<path d="M5548 3534 c-16 -8 -28 -10 -28 -4 0 5 -18 10 -40 10 l-40 0 0 -130
0 -130 45 0 45 0 0 89 c0 101 11 123 55 103 24 -11 25 -16 25 -102 l0 -90 40
0 40 0 0 106 c0 103 -1 106 -29 135 -33 33 -70 37 -113 13z"/>
<path d="M5983 3535 c-35 -15 -53 -41 -53 -79 0 -36 32 -64 80 -72 22 -4 48
-13 57 -20 16 -12 16 -15 3 -24 -21 -14 -36 -12 -54 5 -13 14 -96 22 -96 10 0
-4 7 -19 15 -35 29 -57 152 -67 203 -17 52 53 24 118 -56 133 -57 10 -76 22
-61 40 15 18 33 18 49 -1 14 -17 90 -21 90 -4 0 24 -24 52 -55 65 -43 17 -81
17 -122 -1z"/>
<path d="M7003 3536 c-82 -37 -97 -171 -27 -237 22 -20 36 -24 91 -24 60 0 67
2 94 33 16 18 29 37 29 42 0 15 -73 11 -94 -5 -27 -20 -42 -19 -66 5 -34 34
-24 40 70 40 90 0 90 0 90 25 0 39 -26 92 -54 110 -35 23 -95 28 -133 11z"/>
<path d="M7293 3536 c-82 -37 -97 -171 -27 -237 22 -20 36 -24 91 -24 60 0 67
2 94 33 16 18 29 37 29 42 0 15 -73 11 -94 -5 -27 -20 -42 -19 -66 5 -34 34
-24 40 70 40 90 0 90 0 90 25 0 39 -26 92 -54 110 -35 23 -95 28 -133 11z"/>
<path d="M4550 3433 c1 -112 6 -130 47 -151 32 -18 67 -14 97 9 21 17 26 18
26 5 0 -12 10 -16 35 -16 l35 0 0 130 0 130 -40 0 -40 0 0 -90 c0 -79 -2 -91
-20 -100 -14 -8 -26 -8 -40 0 -18 9 -20 21 -20 100 l0 90 -40 0 -40 0 0 -107z"/>
<path d="M2565 2900 c-49 -97 -50 -246 -3 -339 22 -42 27 -46 66 -49 46 -3 48
-1 27 31 -8 12 -22 51 -31 87 -22 85 -14 181 20 257 15 30 26 57 26 59 0 2
-18 4 -40 4 -38 0 -41 -3 -65 -50z"/>
<path d="M7277 2893 c49 -106 42 -274 -15 -361 -15 -23 -15 -23 29 -20 43 3
45 5 74 63 27 54 30 69 30 155 0 86 -3 101 -30 155 -29 58 -32 60 -72 63 l-42
3 26 -58z"/>
<path d="M2880 2884 c0 -55 0 -55 -22 -40 -50 35 -127 4 -148 -59 -16 -49 -8
-130 17 -163 28 -38 86 -51 124 -30 16 10 29 13 29 8 0 -6 18 -10 40 -10 l40
0 0 175 0 175 -40 0 -40 0 0 -56z"/>
<path d="M3580 2765 l0 -175 40 0 c40 0 40 0 40 39 0 56 14 58 47 6 27 -43 30
-45 76 -45 26 0 47 3 47 6 0 3 -20 35 -45 71 -25 35 -45 66 -45 69 0 3 20 29
45 57 l45 52 -46 3 c-45 3 -49 1 -85 -40 l-38 -43 -1 88 0 87 -40 0 -40 0 0
-175z"/>
<path d="M5380 2765 l0 -175 40 0 c22 0 40 4 40 10 0 5 13 2 29 -8 38 -21 96
-8 124 30 25 33 33 114 17 163 -21 63 -98 94 -148 59 -22 -15 -22 -15 -22 40
l0 56 -40 0 -40 0 0 -175z"/>
<path d="M5680 2765 l0 -175 45 0 45 0 0 175 0 175 -45 0 -45 0 0 -175z"/>
<path d="M6220 2765 l0 -175 45 0 45 0 0 90 c0 86 1 91 25 102 44 20 55 -2 55
-103 l0 -89 40 0 40 0 0 109 0 109 -31 26 c-42 35 -105 31 -131 -8 -4 -6 -8
17 -8 52 l0 62 -40 0 -40 0 0 -175z"/>
<path d="M3880 2885 c0 -28 -4 -35 -20 -35 -16 0 -20 -7 -20 -30 0 -23 4 -30
20 -30 18 0 20 -7 20 -82 0 -46 4 -88 8 -94 20 -30 103 -47 117 -23 13 19 -4
59 -25 59 -18 0 -20 7 -20 70 0 68 1 70 25 70 21 0 25 5 25 30 0 25 -4 30 -25
30 -22 0 -25 4 -25 35 0 34 -1 35 -40 35 -39 0 -40 -1 -40 -35z"/>
<path d="M3093 2853 c-12 -2 -36 -20 -53 -39 -26 -30 -30 -43 -30 -90 0 -69
21 -111 65 -130 80 -33 185 4 185 65 0 17 -68 13 -95 -5 -23 -15 -27 -15 -50
0 -14 9 -25 23 -25 31 0 12 17 15 85 15 l85 0 0 35 c0 90 -67 137 -167 118z"/>
<path d="M3353 2845 c-89 -38 -63 -133 42 -155 34 -7 55 -17 55 -25 0 -22 -39
-29 -59 -11 -10 9 -34 16 -54 16 -29 0 -37 -4 -37 -18 0 -34 46 -65 102 -69
70 -5 119 19 132 65 14 49 -16 84 -84 99 -64 14 -80 27 -52 42 21 11 52 5 52
-10 0 -5 18 -9 40 -9 22 0 40 5 40 11 0 24 -24 52 -55 65 -43 17 -81 17 -122
-1z"/>
<path d="M4113 2845 c-51 -22 -75 -69 -70 -138 4 -75 41 -117 109 -124 92 -11
148 43 148 140 0 63 -23 101 -76 123 -42 17 -70 17 -111 -1z"/>
<path d="M4452 2844 c-12 -8 -22 -10 -22 -5 0 6 -18 11 -40 11 l-40 0 0 -180
0 -180 40 0 40 0 0 61 0 60 22 -15 c71 -50 158 19 158 125 0 103 -88 172 -158
123z"/>
<path d="M4878 2846 c-16 -8 -28 -11 -28 -5 0 5 -18 9 -40 9 l-40 0 0 -180 0
-180 40 0 40 0 0 60 0 59 29 -17 c23 -13 37 -14 67 -7 54 14 84 61 84 132 0
65 -20 107 -60 128 -36 19 -57 19 -92 1z"/>
<path d="M6013 2852 c-42 -13 -63 -39 -63 -81 0 -47 12 -58 86 -80 32 -9 59
-22 61 -28 7 -20 -36 -26 -62 -9 -27 18 -95 22 -95 5 0 -67 130 -104 201 -56
28 19 35 30 37 64 4 47 -17 68 -78 79 -63 12 -89 35 -54 48 9 4 27 0 40 -9 22
-14 94 -22 94 -10 0 4 -7 19 -15 34 -21 43 -89 61 -152 43z"/>
<path d="M6768 2846 c-16 -8 -28 -11 -28 -5 0 5 -18 9 -40 9 l-40 0 0 -130 0
-130 40 0 40 0 0 78 c0 105 31 150 74 106 12 -12 16 -36 16 -100 l0 -84 40 0
40 0 0 104 c0 94 -2 107 -22 131 -28 32 -83 42 -120 21z"/>
<path d="M7012 2847 c-73 -41 -82 -184 -15 -237 28 -22 82 -26 114 -9 19 9 20
8 17 -18 -3 -24 -8 -28 -37 -31 -18 -2 -38 1 -44 7 -13 13 -74 15 -81 2 -27
-44 85 -92 164 -71 77 21 80 29 80 205 l0 155 -40 0 c-22 0 -40 -5 -40 -11 0
-5 -10 -3 -22 5 -27 19 -65 20 -96 3z"/>
<path d="M5072 2747 c4 -123 18 -152 75 -163 26 -5 45 -2 65 9 15 9 28 12 28
7 0 -6 18 -10 40 -10 l40 0 0 130 0 130 -40 0 -40 0 0 -83 c0 -72 -3 -87 -21
-103 -15 -14 -24 -16 -37 -8 -14 9 -18 30 -20 103 l-3 91 -46 0 -45 0 4 -103z"/>
<path d="M5820 2720 l0 -130 40 0 40 0 0 130 0 130 -40 0 -40 0 0 -130z"/>
<path d="M6530 2720 l0 -130 40 0 40 0 0 130 0 130 -40 0 -40 0 0 -130z"/>
<path d="M2195 2268 c-2 -7 -11 -58 -20 -113 -8 -55 -18 -112 -21 -127 -5 -23
-2 -28 15 -28 22 0 25 6 42 110 l12 75 14 -55 c33 -130 33 -130 54 -130 12 0
29 15 45 43 14 23 36 60 50 82 l25 40 -5 -42 c-3 -24 -9 -61 -12 -83 -6 -36
-4 -40 15 -40 11 0 21 3 21 8 0 4 9 59 20 122 25 146 25 150 -2 150 -19 0 -35
-21 -82 -105 -33 -58 -62 -105 -65 -105 -4 0 -17 47 -30 105 -22 97 -26 105
-48 105 -13 0 -25 -6 -28 -12z"/>
<path d="M2541 2147 c-39 -74 -71 -137 -71 -141 0 -3 9 -6 19 -6 11 0 28 15
41 35 20 32 26 35 70 35 49 0 60 -9 60 -51 0 -14 7 -19 25 -19 22 0 24 3 18
33 -4 17 -16 79 -28 137 -18 91 -24 105 -42 108 -18 3 -32 -18 -92 -131z"/>
<path d="M2790 2273 c0 -5 -9 -60 -20 -123 -25 -144 -25 -150 0 -150 14 0 21
9 25 38 10 58 13 62 42 62 25 0 30 -6 46 -50 15 -42 22 -50 43 -50 27 0 27 6
-1 74 -12 28 -11 32 17 58 26 24 29 33 26 75 -2 39 -7 50 -28 60 -27 14 -150
18 -150 6z"/>
<path d="M3135 2248 c-3 -18 -14 -81 -24 -140 l-18 -108 22 0 c21 0 24 8 35
83 7 45 16 88 19 94 4 8 27 -26 56 -82 41 -77 54 -95 73 -95 12 0 22 1 22 3 0
1 9 54 20 117 25 145 25 160 1 160 -15 0 -20 -13 -30 -77 -22 -138 -18 -137
-78 -24 -60 111 -87 130 -98 69z"/>
<path d="M3406 2168 c-10 -62 -20 -125 -23 -140 l-5 -28 73 0 c121 0 172 48
173 162 1 50 -3 61 -27 85 -24 24 -36 28 -100 31 l-73 4 -18 -114z m155 53
c29 -23 31 -79 5 -129 -19 -37 -39 -49 -96 -58 l-43 -7 7 44 c4 24 11 72 17
107 l11 62 38 0 c22 0 47 -8 61 -19z"/>
<path d="M3697 2258 c-3 -13 -12 -63 -19 -111 -10 -76 -10 -92 3 -115 32 -58
151 -52 189 10 17 28 24 60 45 196 6 38 5 42 -14 42 -22 0 -24 -4 -41 -110
-14 -87 -27 -115 -56 -129 -34 -15 -48 -14 -74 7 l-23 18 17 96 c20 119 20
118 -3 118 -11 0 -21 -9 -24 -22z"/>
<path d="M4020 2258 c-47 -33 -70 -82 -70 -150 0 -46 5 -62 24 -85 21 -24 32
-28 80 -29 31 0 62 -6 68 -12 7 -7 23 -12 36 -12 l23 0 -20 29 c-20 28 -20 29
-2 45 26 23 45 98 38 149 -11 82 -102 116 -177 65z m120 -45 c25 -32 23 -87
-5 -130 -16 -24 -19 -25 -30 -10 -7 9 -22 17 -34 17 -22 0 -28 -14 -11 -25 6
-3 10 -13 10 -22 0 -20 -49 -9 -67 14 -31 40 -7 135 41 164 43 26 71 24 96 -8z"/>
<path d="M4275 2268 c-8 -27 -27 -161 -27 -196 0 -70 78 -104 157 -66 41 19
61 60 75 149 6 39 13 83 16 98 5 26 3 28 -17 25 -22 -3 -25 -12 -40 -102 -14
-85 -20 -103 -43 -123 -33 -28 -56 -29 -87 -5 -22 18 -22 20 -10 98 7 43 15
91 18 107 5 23 2 27 -16 27 -12 0 -23 -6 -26 -12z"/>
<path d="M4555 2248 c-3 -18 -14 -81 -24 -140 l-18 -108 89 0 c72 0 88 3 88
15 0 12 -14 15 -65 15 l-64 0 5 33 c10 57 10 57 74 57 53 0 60 2 60 20 0 18
-7 20 -58 20 l-59 0 6 38 6 37 68 3 c59 3 67 5 67 22 0 18 -7 20 -85 20 l-84
0 -6 -32z"/>
<path d="M4928 2264 c-32 -17 -48 -43 -48 -77 0 -31 24 -52 78 -68 62 -18 73
-36 39 -65 -37 -31 -72 -31 -93 1 -22 33 -54 33 -54 1 0 -70 126 -89 182 -27
49 55 34 101 -41 126 -65 21 -80 39 -56 65 26 29 95 25 95 -6 0 -8 10 -14 25
-14 32 0 33 23 0 55 -28 29 -84 33 -127 9z"/>
<path d="M5120 2260 c0 -17 7 -20 40 -20 25 0 40 -5 40 -12 0 -7 -8 -61 -19
-120 l-18 -108 24 0 c12 0 23 3 23 8 0 9 29 180 35 209 4 18 13 22 47 25 31 2
44 8 46 21 3 15 -7 17 -107 17 -104 0 -111 -1 -111 -20z"/>
<path d="M5391 2147 c-39 -74 -71 -137 -71 -141 0 -3 9 -6 19 -6 11 0 28 15
41 35 20 32 26 35 70 35 49 0 60 -9 60 -51 0 -14 7 -19 25 -19 22 0 24 3 18
33 -4 17 -16 79 -28 137 -18 91 -24 105 -42 108 -18 3 -32 -18 -92 -131z"/>
<path d="M5627 2273 c-20 -19 -5 -33 36 -33 l44 0 -18 -107 c-23 -134 -23
-133 1 -133 11 0 20 1 20 3 0 1 9 54 20 117 11 63 20 116 20 118 0 1 20 2 45
2 38 0 45 3 45 20 0 19 -7 20 -103 20 -57 0 -107 -3 -110 -7z"/>
<path d="M5885 2268 c-2 -7 -11 -58 -20 -113 -8 -55 -18 -112 -21 -127 l-6
-28 91 0 c74 0 91 3 91 15 0 12 -14 15 -66 15 -64 0 -66 1 -60 23 3 12 6 32 6
45 0 21 4 22 65 22 58 0 65 2 65 20 0 18 -7 20 -61 20 -52 0 -60 2 -55 16 3 9
6 27 6 40 0 23 3 24 70 24 63 0 70 2 70 20 0 18 -7 20 -85 20 -60 0 -87 -4
-90 -12z"/>
<path d="M6262 2260 c-61 -37 -91 -153 -57 -219 37 -72 168 -61 204 17 14 30
14 32 -5 32 -9 0 -32 -13 -51 -30 -41 -36 -66 -38 -98 -5 -31 30 -32 72 -6
124 34 65 120 81 141 26 6 -15 17 -25 30 -25 30 0 25 36 -9 71 -36 36 -98 40
-149 9z"/>
<path d="M6540 2258 c-47 -33 -70 -82 -70 -150 0 -75 26 -108 90 -115 36 -4
52 0 79 19 61 41 76 71 76 150 0 64 -2 72 -28 94 -37 32 -101 33 -147 2z m119
-44 c50 -64 -5 -178 -86 -178 -42 0 -63 23 -63 69 0 52 20 96 54 116 43 26 71
24 95 -7z"/>
<path d="M6790 2273 c0 -5 -9 -60 -20 -123 -28 -164 -35 -150 65 -150 69 0 85
3 85 15 0 12 -13 15 -60 15 -70 0 -67 -7 -45 120 20 115 20 130 -5 130 -11 0
-20 -3 -20 -7z"/>
<path d="M7005 2268 c-2 -7 -11 -58 -20 -113 -8 -55 -18 -112 -21 -127 l-6
-28 85 0 c66 0 86 3 91 15 4 12 -6 15 -59 15 -36 0 -65 1 -65 3 0 1 9 54 20
117 11 63 20 118 20 123 0 12 -40 8 -45 -5z"/>
<path d="M7220 2273 c0 -5 -9 -60 -20 -123 -29 -166 -35 -151 67 -148 58 2 88
7 91 16 3 9 -14 12 -62 12 -62 0 -66 1 -66 23 0 59 8 67 70 67 54 0 70 8 70
36 0 2 -27 4 -60 4 -64 0 -68 4 -54 58 6 20 12 22 69 22 54 0 63 3 68 20 5 19
0 20 -84 20 -49 0 -89 -3 -89 -7z"/>
<path d="M7490 2257 c-50 -33 -73 -79 -74 -149 -1 -55 1 -62 32 -89 70 -63
187 -13 207 89 l7 32 -61 0 c-54 0 -61 -2 -61 -19 0 -16 8 -20 37 -23 l37 -3
-25 -28 c-55 -62 -129 -38 -129 43 0 72 45 130 101 130 26 0 59 -27 59 -48 0
-7 9 -12 20 -12 30 0 26 45 -6 75 -36 33 -98 34 -144 2z"/>
<path d="M7730 2273 c0 -5 -9 -60 -20 -123 -29 -166 -35 -151 67 -148 58 2 88
7 91 16 3 9 -14 12 -62 12 -62 0 -66 1 -66 23 0 59 8 67 70 67 54 0 70 8 70
36 0 2 -27 4 -60 4 -64 0 -68 4 -54 58 6 20 12 22 69 22 54 0 63 3 68 20 5 19
0 20 -84 20 -49 0 -89 -3 -89 -7z"/>
<path d="M4220 1605 c0 -118 1 -125 20 -125 18 0 20 7 20 87 l0 86 61 -86 c40
-59 66 -87 80 -87 18 0 19 8 19 125 0 118 -1 125 -20 125 -17 0 -19 -8 -22
-87 l-3 -86 -59 86 c-38 56 -66 87 -78 87 -16 0 -18 -11 -18 -125z"/>
<path d="M4523 1720 c-55 -22 -79 -142 -40 -201 53 -80 172 -53 198 44 30 111
-57 197 -158 157z m101 -49 c59 -65 4 -181 -73 -156 -49 15 -65 112 -25 156
22 25 76 25 98 0z"/>
<path d="M4739 1623 c22 -59 42 -116 46 -125 4 -10 17 -18 29 -18 18 0 27 17
64 118 23 64 42 120 42 125 0 4 -8 7 -19 7 -15 0 -26 -20 -52 -95 -18 -52 -36
-92 -39 -89 -3 3 -18 45 -35 92 -25 71 -34 88 -52 90 -22 3 -22 1 16 -105z"/>
<path d="M5065 1705 c-14 -13 -25 -31 -25 -40 0 -23 37 -18 43 6 4 16 12 20
39 17 54 -5 49 -35 -21 -116 -34 -38 -61 -75 -61 -81 0 -7 28 -11 80 -11 64 0
80 3 80 15 0 11 -12 15 -52 15 l-52 0 35 38 c50 51 69 82 69 110 0 33 -43 72
-80 72 -19 0 -40 -9 -55 -25z"/>
<path d="M5269 1704 c-21 -23 -24 -35 -24 -106 0 -75 2 -81 28 -104 46 -39
106 -25 128 30 28 65 6 184 -36 200 -35 13 -72 6 -96 -20z m89 -27 c21 -24 25
-91 8 -130 -16 -41 -38 -47 -68 -20 -20 18 -26 110 -8 144 12 22 52 25 68 6z"/>
<path d="M5475 1705 c-14 -13 -25 -31 -25 -40 0 -23 37 -18 43 6 4 16 12 20
39 17 54 -5 49 -35 -21 -116 -34 -38 -61 -75 -61 -81 0 -7 28 -11 80 -11 64 0
80 3 80 15 0 11 -12 15 -52 15 l-52 0 35 38 c50 51 69 82 69 110 0 33 -43 72
-80 72 -19 0 -40 -9 -55 -25z"/>
<path d="M5695 1718 c-23 -13 -35 -28 -35 -45 0 -18 37 -16 44 2 3 9 18 15 35
15 51 0 51 -56 0 -67 -32 -6 -40 -33 -10 -33 10 0 29 -8 41 -18 19 -16 21 -22
11 -40 -15 -29 -66 -30 -83 -2 -14 22 -48 27 -48 7 0 -26 32 -56 65 -63 72
-13 128 40 106 99 -6 15 -15 27 -21 27 -7 0 -5 9 4 22 22 32 20 55 -9 83 -26
27 -67 32 -100 13z"/>
</g>
</svg>
