<?xml version="1.0" standalone="no"?>
<!DOCTYPE svg PUBLIC "-//W3C//DTD SVG 20010904//EN"
 "http://www.w3.org/TR/2001/REC-SVG-20010904/DTD/svg10.dtd">
<svg version="1.0" xmlns="http://www.w3.org/2000/svg"
 width="1004.000000pt" height="591.000000pt" viewBox="0 0 1004.000000 591.000000"
 preserveAspectRatio="xMidYMid meet">
<metadata>
Created by potrace 1.16, written by Peter Selinger 2001-2019
</metadata>
<g transform="translate(0.000000,591.000000) scale(0.100000,-0.100000)"
fill="#000000" stroke="none">
<path d="M3190 4106 l0 -226 55 0 55 0 0 60 0 60 53 0 c74 0 123 16 165 54 33
31 36 39 40 97 3 55 0 69 -20 99 -38 56 -81 71 -224 78 l-124 5 0 -227z m240
114 c26 -26 27 -91 3 -113 -10 -8 -44 -18 -75 -22 l-58 -7 0 81 0 81 55 0 c42
0 60 -5 75 -20z"/>
<path d="M4334 4276 c-5 -29 -12 -36 -38 -42 -36 -8 -46 -19 -46 -56 0 -23 4
-28 25 -28 24 0 25 -2 25 -77 1 -103 13 -153 46 -181 22 -19 35 -22 88 -20
l61 3 3 51 3 51 -43 -1 -43 -1 -3 88 -3 87 41 0 40 0 0 45 0 45 -40 0 c-39 0
-40 1 -40 35 0 33 -2 35 -35 35 -31 0 -35 -3 -41 -34z"/>
<path d="M6560 4280 c0 -31 -22 -50 -59 -50 -18 0 -21 -6 -21 -40 0 -36 3 -40
25 -40 l25 0 0 -102 c0 -152 24 -183 136 -176 l49 3 3 50 3 50 -43 0 -43 0 -3
88 -3 87 46 0 45 0 0 45 0 45 -45 0 c-45 0 -45 0 -45 35 0 33 -2 35 -35 35
-32 0 -35 -2 -35 -30z"/>
<path d="M3684 4226 c-35 -16 -74 -60 -74 -86 0 -11 14 -21 40 -29 40 -12 42
-11 69 18 32 35 70 40 96 15 31 -32 13 -44 -99 -65 -81 -15 -116 -49 -116
-114 0 -66 31 -95 102 -95 60 0 90 16 119 64 l19 31 0 -42 0 -43 48 0 48 0 -4
123 c-4 143 -13 177 -53 212 -26 21 -40 25 -97 25 -37 -1 -81 -7 -98 -14z"/>
<path d="M4000 4060 l0 -180 54 0 54 0 4 105 c3 92 6 107 25 127 17 16 33 22
63 21 l40 -2 0 55 0 54 -39 0 c-49 0 -86 -30 -100 -80 -9 -33 -9 -32 -10 23
l-1 57 -45 0 -45 0 0 -180z"/>
<path d="M4550 4061 l0 -181 55 0 55 0 -2 178 -3 177 -52 3 -53 3 0 -180z"/>
<path d="M4800 4221 c-104 -56 -114 -254 -16 -323 37 -27 150 -37 196 -18 39
16 80 65 80 95 0 28 -3 30 -51 39 -34 6 -37 4 -49 -24 -22 -53 -97 -53 -125 0
-30 58 -8 154 38 165 32 8 65 -9 77 -40 8 -22 10 -23 52 -11 49 15 58 35 33
72 -41 63 -158 85 -235 45z"/>
<path d="M5110 4060 l0 -180 50 0 50 0 0 180 0 180 -50 0 -50 0 0 -180z"/>
<path d="M5290 4000 l0 -240 50 0 50 0 0 93 c1 87 2 90 16 65 20 -37 43 -48
103 -48 42 0 56 5 85 31 80 69 74 252 -9 317 -20 16 -42 22 -77 22 -60 0 -83
-11 -108 -53 l-20 -32 0 43 0 42 -45 0 -45 0 0 -240z m229 124 c37 -47 20
-154 -28 -169 -51 -16 -108 54 -96 119 14 74 84 101 124 50z"/>
<path d="M5775 4221 c-37 -22 -61 -49 -69 -77 -6 -19 -1 -23 41 -33 37 -10 48
-10 52 0 14 44 85 65 112 33 22 -27 -2 -47 -73 -60 -85 -16 -122 -36 -138 -73
-31 -76 17 -141 103 -141 44 0 54 4 87 38 l38 38 7 -33 c6 -32 8 -33 52 -33
l46 0 -5 133 c-5 147 -18 186 -68 212 -42 22 -147 20 -185 -4z"/>
<path d="M6100 4061 l0 -181 49 0 48 0 5 105 c6 123 22 158 77 163 28 3 33 -1
46 -32 10 -23 15 -70 15 -136 l0 -100 50 0 50 0 0 119 c0 146 -5 174 -40 211
-25 26 -35 30 -85 30 -49 0 -60 -4 -86 -29 -16 -16 -30 -38 -31 -48 0 -10 -4
2 -7 27 -6 45 -6 45 -48 48 l-43 3 0 -180z"/>
<path d="M6431 3550 c-85 -20 -124 -81 -119 -187 5 -107 54 -163 150 -170 80
-6 143 34 163 105 6 20 3 22 -35 22 -33 0 -46 -5 -62 -25 -21 -27 -64 -33 -98
-15 -25 14 -44 79 -36 124 7 39 46 76 80 76 27 0 66 -27 66 -46 0 -10 13 -14
46 -14 42 0 45 1 38 23 -14 46 -35 77 -62 90 -38 20 -91 26 -131 17z"/>
<path d="M1051 3531 c-6 -10 -24 -24 -41 -29 -25 -9 -30 -16 -30 -43 0 -31 1
-32 40 -26 l40 5 0 -119 0 -119 40 0 40 0 0 175 0 175 -40 0 c-28 0 -42 -5
-49 -19z"/>
<path d="M1800 3375 l0 -175 115 0 115 0 0 35 0 35 -75 0 -75 0 0 140 0 140
-40 0 -40 0 0 -175z"/>
<path d="M2210 3375 l0 -175 40 0 40 0 0 45 c0 25 3 45 8 45 4 0 21 -20 37
-45 28 -42 32 -45 78 -45 26 0 47 2 47 5 0 2 -20 33 -45 68 -25 36 -45 68 -45
72 0 4 21 32 46 61 l46 54 -50 0 c-47 0 -53 -3 -86 -42 l-36 -43 0 88 0 87
-40 0 -40 0 0 -175z"/>
<path d="M2490 3375 l0 -175 40 0 40 0 0 84 c0 86 12 116 45 116 33 0 45 -30
45 -116 l0 -84 41 0 41 0 -4 109 c-2 90 -6 113 -22 130 -26 29 -78 37 -115 18
l-31 -15 0 54 0 54 -40 0 -40 0 0 -175z"/>
<path d="M3320 3376 l0 -176 40 0 39 0 3 103 3 102 40 -102 c38 -99 41 -103
70 -103 29 0 32 5 72 103 l42 102 1 -102 0 -103 40 0 40 0 0 176 0 175 -52 -3
-53 -3 -45 -111 -45 -111 -45 111 -45 111 -52 3 -53 3 0 -175z"/>
<path d="M4860 3494 c0 -55 0 -55 -22 -40 -51 36 -118 9 -143 -59 -20 -51 -15
-120 10 -159 21 -31 68 -50 102 -41 16 3 52 6 81 5 l52 -1 0 175 0 176 -40 0
-40 0 0 -56z"/>
<path d="M6980 3375 l0 -175 40 0 40 0 0 175 0 175 -40 0 -40 0 0 -175z"/>
<path d="M8970 3494 c0 -55 0 -55 -22 -40 -50 35 -127 4 -148 -59 -16 -49 -8
-130 17 -163 28 -38 86 -51 124 -30 16 10 29 13 29 8 0 -6 18 -10 40 -10 l40
0 0 175 0 175 -40 0 -40 0 0 -56z"/>
<path d="M1510 3495 c0 -28 -4 -35 -20 -35 -16 0 -20 -7 -20 -30 0 -23 4 -30
20 -30 18 0 20 -7 20 -84 0 -80 1 -86 27 -106 19 -14 38 -20 62 -18 31 3 36 7
39 30 3 22 -2 30 -22 38 -24 9 -26 14 -26 75 0 63 1 65 25 65 21 0 25 5 25 30
0 25 -4 30 -25 30 -22 0 -25 4 -25 35 0 34 -1 35 -40 35 -39 0 -40 -1 -40 -35z"/>
<path d="M7130 3495 c0 -28 -4 -35 -20 -35 -16 0 -20 -7 -20 -30 0 -23 4 -30
20 -30 18 0 20 -7 20 -84 0 -80 1 -86 27 -106 19 -14 38 -20 62 -18 31 3 36 7
39 30 3 22 -2 30 -22 38 -24 9 -26 14 -26 75 0 63 1 65 25 65 21 0 25 5 25 30
0 25 -4 30 -25 30 -22 0 -25 4 -25 35 0 34 -1 35 -40 35 -39 0 -40 -1 -40 -35z"/>
<path d="M1264 3456 c-52 -23 -65 -98 -22 -133 8 -7 36 -17 63 -23 61 -14 69
-19 54 -36 -15 -18 -43 -18 -59 1 -14 17 -90 21 -90 4 0 -40 56 -79 115 -79
46 0 101 23 114 48 31 59 -1 105 -85 122 -33 7 -54 17 -54 25 0 21 31 27 56
10 34 -22 84 -20 84 3 0 52 -110 88 -176 58z"/>
<path d="M2843 3455 c-30 -13 -53 -41 -53 -64 0 -6 18 -11 40 -11 22 0 40 5
40 10 0 14 57 13 66 -1 9 -16 -11 -26 -68 -33 -62 -9 -88 -33 -88 -85 0 -55
38 -85 95 -77 22 4 64 6 93 6 l52 -1 0 101 c0 56 -5 110 -11 122 -13 23 -67
48 -106 48 -15 -1 -42 -7 -60 -15z"/>
<path d="M3833 3463 c-22 -4 -73 -56 -73 -74 0 -12 77 -12 85 1 3 6 20 10 36
10 23 0 30 -4 27 -17 -2 -11 -20 -20 -58 -27 -67 -14 -78 -21 -91 -53 -29 -78
69 -146 139 -97 12 8 22 10 22 5 0 -6 18 -11 40 -11 l40 0 0 89 c0 98 -11 140
-40 159 -23 14 -94 23 -127 15z"/>
<path d="M4157 3463 c-4 -4 -30 -6 -57 -4 l-50 2 0 -131 0 -130 40 0 40 0 0
83 c0 90 8 107 50 107 22 0 29 7 37 34 9 28 8 36 -4 40 -20 8 -48 7 -56 -1z"/>
<path d="M4498 3456 c-16 -8 -28 -11 -28 -5 0 5 -18 9 -40 9 l-40 0 0 -130 0
-130 40 0 40 0 0 78 c0 105 31 150 74 106 12 -12 16 -36 16 -100 l0 -84 40 0
40 0 0 104 c0 94 -2 107 -22 131 -28 32 -83 42 -120 21z"/>
<path d="M5348 3455 c-55 -30 -74 -156 -33 -219 29 -44 92 -59 133 -30 l22 15
0 -60 0 -61 40 0 40 0 0 180 0 180 -40 0 c-22 0 -40 -5 -40 -11 0 -5 -10 -3
-22 5 -28 20 -65 20 -100 1z"/>
<path d="M5983 3463 c-12 -2 -36 -20 -53 -39 -26 -30 -30 -43 -30 -90 0 -69
21 -111 65 -130 80 -33 185 4 185 65 0 17 -68 13 -95 -5 -23 -15 -27 -15 -50
0 -14 9 -25 23 -25 31 0 12 17 15 85 15 l85 0 0 35 c0 90 -67 137 -167 118z"/>
<path d="M7702 3454 c-12 -8 -22 -10 -22 -5 0 6 -18 11 -40 11 l-40 0 0 -130
0 -130 40 0 40 0 0 76 c0 90 10 114 49 114 22 0 31 7 41 29 6 17 9 35 5 40 -9
16 -47 13 -73 -5z"/>
<path d="M7873 3456 c-82 -37 -97 -171 -27 -237 22 -20 36 -24 91 -24 60 0 67
2 94 33 16 18 29 37 29 42 0 15 -73 11 -94 -5 -27 -20 -42 -19 -66 5 -34 34
-24 40 70 40 90 0 90 0 90 25 0 39 -26 92 -54 110 -35 23 -95 28 -133 11z"/>
<path d="M8283 3463 c-22 -4 -73 -56 -73 -74 0 -12 77 -12 85 1 3 6 20 10 36
10 23 0 30 -4 27 -17 -2 -11 -20 -20 -58 -27 -67 -14 -78 -21 -91 -53 -29 -78
69 -146 139 -97 12 8 22 10 22 5 0 -6 18 -11 40 -11 l40 0 0 89 c0 98 -11 140
-40 159 -23 14 -94 23 -127 15z"/>
<path d="M8596 3449 c-21 -17 -26 -18 -26 -5 0 12 -10 16 -35 16 l-35 0 0
-130 0 -130 40 0 40 0 0 90 c0 86 1 91 25 102 44 20 55 -2 55 -103 l0 -89 46
0 47 0 -5 103 c-6 119 -11 133 -49 152 -39 21 -72 19 -103 -6z"/>
<path d="M2070 3330 l0 -130 40 0 40 0 0 130 0 130 -40 0 -40 0 0 -130z"/>
<path d="M3070 3330 l0 -130 40 0 40 0 0 130 0 130 -40 0 -40 0 0 -130z"/>
<path d="M4260 3330 l0 -130 40 0 40 0 0 130 0 130 -40 0 -40 0 0 -130z"/>
<path d="M5000 3354 c0 -103 1 -106 29 -135 33 -33 67 -37 111 -14 17 9 30 11
30 5 0 -5 18 -10 40 -10 l40 0 0 130 0 130 -39 0 -39 0 -3 -86 c-3 -71 -7 -88
-23 -100 -25 -18 -31 -18 -50 2 -12 12 -16 36 -16 100 l0 84 -40 0 -40 0 0
-106z"/>
<path d="M5610 3353 c1 -112 6 -130 47 -151 32 -18 67 -14 97 9 21 17 26 18
26 5 0 -12 10 -16 35 -16 l35 0 0 130 0 130 -40 0 -40 0 0 -90 c0 -79 -2 -91
-20 -100 -14 -8 -26 -8 -40 0 -18 9 -20 21 -20 100 l0 90 -40 0 -40 0 0 -107z"/>
<path d="M6680 3353 c1 -112 6 -130 47 -151 32 -18 67 -14 97 9 21 17 26 18
26 5 0 -12 10 -16 35 -16 l35 0 0 130 0 130 -40 0 -40 0 0 -90 c0 -79 -2 -91
-20 -100 -14 -8 -26 -8 -40 0 -18 9 -20 21 -20 100 l0 90 -40 0 -40 0 0 -107z"/>
<path d="M7302 3351 c2 -90 6 -113 22 -130 26 -29 78 -37 115 -18 17 9 31 11
31 6 0 -5 18 -9 40 -9 l40 0 0 130 0 130 -40 0 -40 0 0 -83 c0 -69 -3 -87 -18
-100 -45 -41 -72 -1 -72 105 l0 78 -41 0 -41 0 4 -109z"/>
<path d="M3630 2838 c-6 -18 -33 -97 -60 -176 l-49 -143 46 3 c44 3 48 5 57
36 l9 33 61 -3 c59 -3 61 -4 70 -35 8 -31 12 -33 52 -33 24 0 44 3 44 8 0 4
-26 82 -57 174 l-58 168 -52 0 c-49 0 -52 -2 -63 -32z"/>
<path d="M4690 2695 l0 -175 40 0 40 0 0 70 0 70 70 0 70 0 0 35 0 35 -70 0
-70 0 0 35 0 35 80 0 80 0 0 35 0 35 -120 0 -120 0 0 -175z"/>
<path d="M6420 2695 l0 -175 40 0 40 0 0 175 0 175 -40 0 -40 0 0 -175z"/>
<path d="M4130 2815 c0 -28 -4 -35 -20 -35 -16 0 -20 -7 -20 -30 0 -23 4 -30
20 -30 18 0 20 -7 20 -82 0 -46 4 -88 8 -94 20 -30 103 -47 117 -23 13 19 -4
59 -25 59 -18 0 -20 7 -20 70 0 68 1 70 25 70 21 0 25 5 25 30 0 25 -4 30 -25
30 -22 0 -25 4 -25 35 0 34 -1 35 -40 35 -39 0 -40 -1 -40 -35z"/>
<path d="M5550 2815 c0 -28 -4 -35 -20 -35 -16 0 -20 -7 -20 -30 0 -23 4 -30
20 -30 18 0 20 -7 20 -84 0 -80 1 -86 27 -106 19 -14 38 -20 62 -18 31 3 36 7
39 30 3 22 -2 30 -22 38 -24 9 -26 14 -26 75 0 63 1 65 25 65 21 0 25 5 25 30
0 25 -4 30 -25 30 -22 0 -25 4 -25 35 0 34 -1 35 -40 35 -39 0 -40 -1 -40 -35z"/>
<path d="M4007 2783 c-4 -4 -30 -6 -57 -4 l-50 2 0 -131 0 -130 40 0 40 0 0
83 c0 91 8 107 51 107 21 0 29 7 38 32 9 24 8 34 -1 40 -16 10 -52 10 -61 1z"/>
<path d="M4344 2776 c-52 -23 -65 -98 -22 -133 8 -7 36 -17 63 -23 61 -14 69
-19 54 -36 -15 -18 -43 -18 -59 1 -14 17 -90 21 -90 4 0 -40 56 -79 115 -79
46 0 101 23 114 48 31 59 -1 105 -85 122 -33 7 -54 17 -54 25 0 21 31 27 56
10 34 -22 84 -20 84 3 0 52 -110 88 -176 58z"/>
<path d="M5033 2775 c-93 -40 -98 -207 -8 -249 77 -37 185 0 185 63 0 16 -72
13 -94 -4 -26 -19 -32 -19 -56 5 -34 34 -24 40 71 40 l91 0 -7 43 c-9 56 -29
86 -70 103 -43 17 -71 17 -112 -1z"/>
<path d="M5304 2776 c-52 -23 -65 -98 -22 -133 8 -7 36 -17 63 -23 61 -14 69
-19 54 -36 -15 -18 -43 -18 -59 1 -14 17 -90 21 -90 4 0 -40 56 -79 115 -79
46 0 101 23 114 48 31 59 -1 105 -85 122 -33 7 -54 17 -54 25 0 21 31 27 56
10 34 -22 84 -20 84 3 0 52 -110 88 -176 58z"/>
<path d="M6193 2775 c-30 -13 -53 -41 -53 -64 0 -6 18 -11 40 -11 22 0 40 5
40 10 0 14 57 13 66 -1 9 -16 -11 -26 -68 -33 -62 -9 -88 -33 -88 -85 0 -55
38 -85 95 -77 22 4 64 6 93 6 l52 -1 0 101 c0 56 -5 110 -11 122 -13 23 -67
48 -106 48 -15 -1 -42 -7 -60 -15z"/>
<path d="M5720 2650 l0 -130 40 0 40 0 0 130 0 130 -40 0 -40 0 0 -130z"/>
<path d="M5840 2773 c0 -4 19 -63 42 -130 l43 -123 47 0 c27 0 48 1 48 3 0 1
20 60 45 130 l45 127 -44 0 -44 0 -21 -69 c-12 -38 -21 -75 -21 -82 0 -27 -16
6 -35 74 l-21 72 -42 3 c-23 2 -42 0 -42 -5z"/>
<path d="M920 2248 c-47 -32 -70 -82 -70 -149 0 -42 5 -63 20 -82 23 -29 74
-43 117 -33 28 8 93 67 93 85 0 21 -41 11 -64 -16 -29 -34 -90 -38 -112 -8
-18 24 -18 77 0 120 28 66 128 87 142 30 4 -18 13 -25 31 -25 22 0 24 3 19 28
-11 43 -50 72 -100 72 -28 0 -54 -8 -76 -22z"/>
<path d="M1220 2263 c-54 -20 -93 -88 -94 -165 -1 -49 3 -62 25 -84 53 -53
149 -36 196 34 47 71 38 178 -17 207 -29 15 -81 19 -110 8z m93 -50 c8 -10 18
-30 22 -45 10 -39 -26 -113 -64 -132 -39 -21 -54 -20 -81 2 -41 33 -22 138 32
176 30 21 71 20 91 -1z"/>
<path d="M1445 2238 c-3 -18 -14 -81 -24 -140 l-18 -108 22 0 c21 0 24 8 35
83 7 45 16 88 19 94 4 8 27 -26 56 -82 41 -77 54 -95 73 -95 12 0 22 1 22 3 0
1 9 54 20 117 25 145 25 160 1 160 -15 0 -20 -13 -30 -77 -22 -138 -18 -137
-78 -24 -60 111 -87 130 -98 69z"/>
<path d="M1717 2250 c-5 -18 0 -20 39 -20 41 0 44 -2 39 -22 -6 -31 -35 -201
-35 -211 0 -5 10 -7 22 -5 21 3 24 13 42 121 l19 117 43 0 c37 0 44 3 44 20 0
19 -7 20 -104 20 -95 0 -104 -2 -109 -20z"/>
<path d="M1975 2238 c-3 -18 -14 -81 -24 -140 l-18 -108 89 0 c72 0 88 3 88
15 0 12 -14 15 -65 15 l-64 0 5 33 c10 57 10 57 74 57 53 0 60 2 60 20 0 18
-7 20 -58 20 l-59 0 6 38 6 37 68 3 c59 3 67 5 67 22 0 18 -7 20 -85 20 l-84
0 -6 -32z"/>
<path d="M2205 2238 c-3 -18 -14 -81 -24 -140 l-18 -108 22 0 c21 0 24 8 35
83 7 45 16 88 19 94 4 8 27 -26 56 -82 41 -77 54 -95 73 -95 12 0 22 1 22 3 0
1 9 54 20 117 25 145 25 160 1 160 -15 0 -20 -13 -30 -77 -22 -138 -18 -137
-78 -24 -60 111 -87 130 -98 69z"/>
<path d="M2477 2250 c-5 -18 0 -20 39 -20 41 0 44 -2 39 -22 -6 -31 -35 -201
-35 -211 0 -5 10 -7 22 -5 21 3 24 13 42 121 l19 117 43 0 c37 0 44 3 44 20 0
19 -7 20 -104 20 -95 0 -104 -2 -109 -20z"/>
<path d="M2910 2263 c-54 -20 -93 -88 -94 -165 -1 -49 3 -62 25 -83 52 -52
149 -38 189 27 20 33 20 33 0 36 -12 2 -29 -7 -42 -22 -53 -61 -131 -36 -130
41 1 74 47 133 103 133 26 0 59 -27 59 -48 0 -7 9 -12 20 -12 30 0 26 45 -6
75 -26 25 -84 33 -124 18z"/>
<path d="M3125 2258 c-2 -7 -11 -58 -20 -113 -8 -55 -18 -112 -21 -127 -5 -25
-3 -28 19 -28 22 0 25 5 31 50 6 47 8 50 36 50 26 0 31 -5 47 -50 15 -43 21
-50 44 -50 l27 0 -19 51 -20 52 26 27 c14 15 28 43 32 63 4 29 1 40 -20 61
-23 23 -35 26 -92 26 -44 0 -67 -4 -70 -12z"/>
<path d="M3365 2238 c-3 -18 -14 -81 -24 -140 l-18 -108 89 0 c72 0 88 3 88
15 0 12 -14 15 -65 15 l-64 0 5 33 c10 57 10 57 74 57 53 0 60 2 60 20 0 18
-7 20 -58 20 l-59 0 6 38 6 37 68 3 c59 3 67 5 67 22 0 18 -7 20 -85 20 l-84
0 -6 -32z"/>
<path d="M3602 2130 c-69 -132 -72 -140 -50 -140 17 0 29 10 42 35 18 33 22
35 73 35 46 0 53 -3 53 -19 0 -33 11 -51 31 -51 24 0 24 3 -6 150 -14 68 -25
124 -25 126 0 2 -10 4 -22 4 -19 0 -35 -24 -96 -140z"/>
<path d="M3840 2250 c0 -17 7 -20 40 -20 22 0 40 -3 40 -7 0 -10 -29 -181 -35
-210 -4 -19 -1 -23 18 -23 22 0 25 6 42 120 l18 120 43 0 c37 0 54 11 54 36 0
2 -49 4 -110 4 -103 0 -110 -1 -110 -20z"/>
<path d="M4242 2250 c-84 -52 -98 -216 -21 -256 95 -49 199 37 199 163 0 47
-4 59 -29 84 -36 36 -98 40 -149 9z m119 -41 c18 -18 21 -30 16 -72 -4 -42
-10 -56 -41 -84 -43 -39 -68 -42 -101 -8 -30 30 -32 72 -6 124 31 60 93 79
132 40z"/>
<path d="M4476 2158 c-10 -62 -20 -125 -23 -140 -5 -23 -2 -28 15 -28 24 0 27
8 43 118 l13 83 54 -101 c43 -81 58 -100 76 -100 20 0 23 8 40 113 10 61 20
124 23 140 5 23 2 27 -16 27 -11 0 -21 -1 -22 -2 0 -2 -8 -48 -18 -103 l-17
-100 -46 85 c-26 47 -50 93 -53 103 -4 9 -17 17 -29 17 -20 0 -23 -9 -40 -112z"/>
<path d="M4865 2243 c6 -35 25 -216 25 -238 0 -12 7 -15 26 -13 22 3 31 17 67
98 l42 94 7 -49 c4 -28 10 -71 13 -97 5 -41 9 -48 29 -48 19 0 30 18 79 133
32 72 57 135 57 140 0 4 -9 7 -19 7 -15 0 -29 -24 -64 -106 l-45 -107 -7 79
c-10 121 -13 134 -38 134 -18 0 -29 -17 -62 -96 -22 -52 -42 -97 -46 -100 -4
-2 -10 41 -14 96 -6 97 -7 100 -31 100 -20 0 -23 -4 -19 -27z"/>
<path d="M5310 2263 c-54 -20 -93 -88 -94 -165 -1 -49 3 -62 25 -84 53 -53
149 -36 196 34 47 71 38 178 -17 207 -29 15 -81 19 -110 8z m93 -50 c8 -10 18
-30 22 -45 10 -39 -26 -113 -64 -132 -39 -21 -54 -20 -81 2 -41 33 -22 138 32
176 30 21 71 20 91 -1z"/>
<path d="M5535 2238 c-3 -18 -14 -81 -24 -140 l-18 -108 23 0 c19 0 23 7 29
51 7 49 8 50 37 47 26 -3 33 -10 48 -48 14 -36 23 -46 44 -48 l26 -3 -20 53
c-20 52 -20 53 -1 68 26 21 41 53 41 87 0 53 -32 73 -119 73 -60 0 -60 0 -66
-32z"/>
<path d="M5766 2158 c-10 -62 -20 -125 -23 -140 -5 -23 -2 -28 15 -28 21 0 32
18 32 54 0 24 40 68 47 51 2 -5 17 -31 33 -57 23 -37 36 -48 56 -48 l26 0 -28
48 c-67 113 -67 95 4 158 34 30 62 60 62 65 0 17 -47 9 -66 -12 -10 -12 -41
-40 -68 -62 l-48 -41 7 45 c3 24 9 52 11 62 4 13 -1 17 -18 17 -23 0 -25 -6
-42 -112z"/>
<path d="M6058 2253 c-57 -35 -56 -110 1 -131 17 -7 45 -17 62 -23 22 -9 29
-17 27 -33 -7 -47 -103 -61 -115 -16 -3 11 -14 20 -24 20 -14 0 -19 -7 -19
-29 0 -37 19 -52 73 -58 75 -9 127 31 127 95 0 36 -10 45 -75 69 -32 12 -51
25 -54 38 -8 42 78 63 101 25 7 -11 21 -20 30 -20 24 0 23 35 -2 60 -25 25
-94 26 -132 3z"/>
<path d="M6256 2158 c-10 -62 -20 -125 -23 -140 -5 -23 -2 -28 15 -28 22 0 27
10 37 78 l7 42 68 0 67 0 -8 -42 c-13 -67 -11 -78 11 -78 11 0 20 1 20 3 0 1
9 54 20 117 25 145 25 160 1 160 -15 0 -20 -11 -27 -57 l-9 -58 -68 -3 -69 -3
7 43 c3 24 9 51 11 61 4 13 -1 17 -18 17 -23 0 -25 -6 -42 -112z"/>
<path d="M6607 2255 c-39 -20 -63 -52 -78 -103 -17 -61 -6 -111 32 -146 28
-25 38 -28 77 -23 83 9 134 75 136 174 0 50 -3 58 -32 84 -37 33 -89 38 -135
14z m101 -41 c17 -12 22 -25 22 -60 0 -57 -22 -99 -61 -120 -97 -50 -147 80
-64 163 36 36 68 42 103 17z"/>
<path d="M6845 2258 c-2 -7 -11 -58 -20 -113 -8 -55 -18 -112 -21 -127 -5 -25
-3 -28 20 -28 20 0 26 5 26 23 0 55 9 65 67 72 65 8 98 35 108 88 8 42 -7 74
-41 87 -37 15 -134 13 -139 -2z"/>
<path d="M7260 2263 c-54 -20 -93 -88 -94 -165 -1 -49 3 -62 25 -83 52 -52
149 -38 189 27 20 33 20 33 0 36 -12 2 -29 -7 -42 -22 -53 -61 -131 -36 -130
41 1 74 47 133 103 133 26 0 59 -27 59 -48 0 -7 9 -12 20 -12 30 0 26 45 -6
75 -26 25 -84 33 -124 18z"/>
<path d="M7481 2137 c-39 -74 -71 -137 -71 -141 0 -3 9 -6 19 -6 11 0 28 15
41 35 20 32 26 35 70 35 49 0 60 -9 60 -51 0 -14 7 -19 25 -19 22 0 24 3 18
33 -4 17 -16 79 -28 137 -18 91 -24 105 -42 108 -18 3 -32 -18 -92 -131z"/>
<path d="M7717 2263 c-20 -19 -5 -33 36 -33 l44 0 -18 -107 c-23 -134 -23
-133 1 -133 11 0 20 1 20 3 0 1 9 54 20 117 11 63 20 116 20 118 0 1 20 2 45
2 38 0 45 3 45 20 0 19 -7 20 -103 20 -57 0 -107 -3 -110 -7z"/>
<path d="M7975 2258 c-2 -7 -11 -58 -20 -113 -8 -55 -18 -112 -21 -127 l-6
-28 91 0 c74 0 91 3 91 15 0 12 -14 15 -66 15 -64 0 -66 1 -60 23 3 12 6 32 6
45 0 21 4 22 65 22 58 0 65 2 65 20 0 18 -7 20 -61 20 -52 0 -60 2 -55 16 3 9
6 27 6 40 0 23 3 24 70 24 63 0 70 2 70 20 0 18 -7 20 -85 20 -60 0 -87 -4
-90 -12z"/>
<path d="M8265 2260 c-48 -20 -95 -100 -95 -164 0 -94 74 -140 165 -102 38 16
63 50 75 101 l8 35 -59 0 c-52 0 -59 -2 -59 -20 0 -16 7 -20 30 -20 35 0 38
-12 10 -40 -44 -44 -110 -31 -124 25 -16 64 43 155 100 155 24 0 64 -31 64
-50 0 -5 9 -10 20 -10 14 0 20 7 20 23 -1 59 -86 96 -155 67z"/>
<path d="M8550 2263 c-54 -20 -93 -88 -94 -165 -1 -49 3 -62 25 -84 53 -53
149 -36 196 34 47 71 38 178 -17 207 -29 15 -81 19 -110 8z m93 -50 c8 -10 18
-30 22 -45 10 -39 -26 -113 -64 -132 -39 -21 -54 -20 -81 2 -41 33 -22 138 32
176 30 21 71 20 91 -1z"/>
<path d="M8775 2238 c-3 -18 -14 -81 -24 -140 l-18 -108 23 0 c19 0 23 7 29
51 7 49 8 50 37 47 26 -3 33 -10 48 -48 14 -36 23 -46 44 -48 l26 -3 -20 53
c-20 52 -20 53 -1 68 26 21 41 53 41 87 0 53 -32 73 -119 73 -60 0 -60 0 -66
-32z"/>
<path d="M9000 2261 c0 -5 16 -43 35 -85 32 -71 34 -80 25 -127 -6 -29 -10
-53 -10 -55 0 -2 11 -4 24 -4 21 0 24 6 30 53 6 43 17 65 65 127 77 101 77
100 47 100 -18 0 -35 -15 -68 -60 -23 -33 -45 -60 -48 -60 -3 0 -16 27 -30 60
-20 48 -29 60 -47 60 -13 0 -23 -4 -23 -9z"/>
<path d="M4140 1645 c0 -117 1 -125 20 -125 17 0 19 8 22 82 l3 83 55 -82 c41
-62 61 -82 78 -83 22 0 22 2 22 125 0 118 -1 125 -20 125 -19 0 -20 -7 -20
-92 l0 -92 -62 92 c-89 129 -98 126 -98 -33z"/>
<path d="M4432 1754 c-74 -51 -67 -193 11 -230 48 -23 98 -12 131 27 22 25 26
41 26 91 0 55 -3 63 -34 94 -27 27 -42 34 -73 34 -21 0 -49 -7 -61 -16z m98
-34 c22 -12 41 -70 33 -102 -8 -34 -43 -68 -70 -68 -38 0 -73 42 -73 88 0 71
55 112 110 82z"/>
<path d="M4625 1749 c4 -13 24 -68 45 -124 32 -87 40 -100 60 -100 20 0 28 13
60 100 57 154 56 147 29 143 -19 -2 -27 -18 -52 -90 -16 -49 -32 -88 -36 -88
-4 0 -21 39 -38 88 -25 71 -34 88 -53 90 -19 3 -21 0 -15 -19z"/>
<path d="M4982 1747 c-12 -13 -22 -31 -22 -40 0 -24 37 -21 43 3 6 25 62 28
71 4 10 -26 8 -28 -54 -99 -33 -37 -60 -74 -60 -81 0 -11 19 -14 80 -14 64 0
80 3 80 15 0 11 -12 15 -51 15 l-51 0 40 48 c52 63 64 87 56 117 -14 55 -93
74 -132 32z"/>
<path d="M5193 1755 c-44 -31 -54 -156 -18 -211 18 -27 74 -41 104 -25 37 20
54 67 49 139 -4 55 -8 68 -32 88 -31 28 -72 31 -103 9z m85 -50 c17 -37 15
-107 -4 -133 -20 -29 -54 -25 -72 8 -15 30 -11 112 8 135 20 24 55 19 68 -10z"/>
<path d="M5392 1747 c-12 -13 -22 -31 -22 -40 0 -24 37 -21 43 3 6 25 62 28
71 4 10 -26 8 -28 -54 -99 -33 -37 -60 -74 -60 -81 0 -11 19 -14 80 -14 64 0
80 3 80 15 0 11 -12 15 -51 15 l-51 0 40 48 c52 63 64 87 56 117 -14 55 -93
74 -132 32z"/>
<path d="M5595 1745 c-14 -13 -25 -29 -25 -35 0 -16 30 -12 57 10 19 15 30 17
44 9 34 -18 17 -69 -23 -69 -30 0 -20 -27 15 -36 59 -18 34 -85 -26 -70 -15 3
-27 13 -27 21 0 8 -9 15 -20 15 -30 0 -25 -34 8 -60 32 -26 91 -23 123 6 24
21 25 71 2 96 -13 14 -14 21 -5 30 7 7 12 25 12 40 0 65 -87 92 -135 43z"/>
</g>
</svg>
