<?xml version="1.0" standalone="no"?>
<!DOCTYPE svg PUBLIC "-//W3C//DTD SVG 20010904//EN"
 "http://www.w3.org/TR/2001/REC-SVG-20010904/DTD/svg10.dtd">
<svg version="1.0" xmlns="http://www.w3.org/2000/svg"
 width="1004.000000pt" height="591.000000pt" viewBox="0 0 1004.000000 591.000000"
 preserveAspectRatio="xMidYMid meet">
<metadata>
Created by potrace 1.16, written by Peter Selinger 2001-2019
</metadata>
<g transform="translate(0.000000,591.000000) scale(0.100000,-0.100000)"
fill="#000000" stroke="none">
<path d="M2900 4185 l0 -225 145 0 145 0 0 45 0 45 -90 0 -90 0 0 180 0 180
-55 0 -55 0 0 -225z"/>
<path d="M5365 4398 c-47 -134 -145 -423 -145 -430 0 -5 26 -8 58 -6 57 3 57
3 66 41 l10 37 86 0 87 0 12 -40 12 -40 58 0 58 0 -73 216 c-41 119 -77 220
-80 225 -8 14 -144 11 -149 -3z"/>
<path d="M4883 4360 c-6 -32 -28 -50 -62 -50 -18 0 -21 -6 -21 -40 0 -36 3
-40 24 -40 23 0 24 -2 28 -107 5 -148 28 -178 134 -171 l49 3 3 51 3 50 -37
-4 c-48 -6 -54 5 -54 101 l0 77 45 0 45 0 0 45 0 45 -45 0 c-45 0 -45 0 -45
35 0 32 -2 35 -30 35 -26 0 -31 -5 -37 -30z"/>
<path d="M6044 4356 c-5 -29 -12 -36 -38 -42 -36 -8 -46 -19 -46 -56 0 -23 4
-28 25 -28 24 0 25 -2 25 -77 1 -103 13 -153 46 -181 22 -19 35 -22 88 -20
l61 3 3 51 3 51 -43 -1 -43 -1 -3 88 -3 87 41 0 40 0 0 45 0 45 -40 0 c-39 0
-40 1 -40 35 0 33 -2 35 -35 35 -31 0 -35 -3 -41 -34z"/>
<path d="M6850 4360 c0 -31 -22 -50 -59 -50 -18 0 -21 -6 -21 -40 0 -36 3 -40
25 -40 l25 0 0 -102 c0 -152 24 -183 136 -176 l49 3 3 50 3 50 -43 0 -43 0 -3
88 -3 87 46 0 45 0 0 45 0 45 -45 0 c-45 0 -45 0 -45 35 0 33 -2 35 -35 35
-32 0 -35 -2 -35 -30z"/>
<path d="M3304 4306 c-35 -16 -74 -60 -74 -86 0 -11 14 -21 40 -29 40 -12 42
-11 69 18 32 35 70 40 96 15 31 -32 13 -44 -99 -65 -81 -15 -116 -49 -116
-114 0 -66 31 -95 102 -95 60 0 90 16 119 64 l19 31 0 -42 0 -43 48 0 48 0 -4
123 c-4 143 -13 177 -53 212 -26 21 -40 25 -97 25 -37 -1 -81 -7 -98 -14z"/>
<path d="M3620 4208 c1 -168 28 -218 120 -218 56 0 78 14 101 63 l19 42 0 -33
c0 -44 -23 -96 -51 -116 -31 -21 -74 -20 -128 4 -24 11 -44 20 -46 20 -7 0
-25 -82 -19 -91 13 -22 75 -39 142 -39 55 0 76 5 102 23 75 51 92 112 88 318
l-3 134 -52 3 -53 3 0 -83 c0 -97 -20 -151 -59 -156 -13 -2 -28 1 -35 8 -6 6
-13 58 -16 118 l-5 107 -52 3 -53 3 0 -113z"/>
<path d="M4090 4303 c-119 -61 -119 -275 0 -336 51 -26 163 -20 208 11 49 35
66 76 66 157 0 81 -17 122 -66 157 -45 31 -157 37 -208 11z m140 -88 c34 -37
40 -120 10 -157 -28 -36 -72 -37 -105 -3 -21 20 -25 34 -25 80 0 46 4 60 25
80 31 32 65 32 95 0z"/>
<path d="M4420 4193 c0 -147 10 -194 47 -223 40 -31 122 -28 157 6 14 15 30
41 35 58 8 28 9 27 10 -21 l1 -53 45 0 45 0 0 180 0 180 -55 0 -55 0 0 -107
c0 -91 -3 -113 -20 -141 -17 -28 -25 -33 -53 -30 -43 4 -56 43 -56 176 l-1
102 -50 0 -50 0 0 -127z"/>
<path d="M5710 4140 l0 -180 54 0 54 0 4 105 c3 92 6 107 25 127 17 16 33 22
63 21 l40 -2 0 55 0 54 -39 0 c-49 0 -86 -30 -100 -80 -9 -33 -9 -32 -10 23
l-1 57 -45 0 -45 0 0 -180z"/>
<path d="M6260 4141 l0 -181 55 0 55 0 -2 178 -3 177 -52 3 -53 3 0 -180z"/>
<path d="M6500 4313 c-8 -3 -27 -17 -42 -31 -22 -20 -28 -35 -28 -69 0 -57 29
-87 106 -108 106 -30 109 -31 109 -51 0 -16 -8 -20 -47 -22 -40 -3 -52 1 -74
23 -24 24 -28 25 -65 14 -43 -13 -44 -16 -27 -54 18 -41 76 -65 153 -65 111 0
165 37 165 113 0 51 -32 81 -106 102 -106 30 -109 31 -109 51 0 15 8 20 37 22
42 4 78 -12 78 -33 0 -18 2 -18 51 -3 25 7 39 17 39 27 0 27 -30 62 -66 77
-32 14 -144 18 -174 7z"/>
<path d="M1811 3607 c-27 -13 -37 -29 -46 -69 -3 -16 -12 -28 -20 -28 -10 0
-15 -10 -15 -30 0 -20 5 -30 15 -30 12 0 15 -18 15 -100 l0 -100 45 0 45 0 0
100 0 100 25 0 c21 0 25 5 25 30 0 26 -4 30 -26 30 -19 0 -25 5 -22 18 2 9 13
18 25 20 25 4 41 51 21 63 -19 12 -59 11 -87 -4z"/>
<path d="M2001 3607 c-27 -13 -37 -29 -46 -69 -3 -16 -12 -28 -20 -28 -10 0
-15 -10 -15 -30 0 -20 5 -30 15 -30 12 0 15 -18 15 -100 l0 -100 45 0 45 0 0
100 0 100 25 0 c21 0 25 5 25 30 0 26 -4 30 -26 30 -19 0 -25 5 -22 18 2 9 13
18 25 20 25 4 41 51 21 63 -19 12 -59 11 -87 -4z"/>
<path d="M6371 3607 c-27 -13 -37 -29 -46 -69 -3 -16 -12 -28 -20 -28 -10 0
-15 -10 -15 -30 0 -20 5 -30 15 -30 12 0 15 -18 15 -100 l0 -100 45 0 45 0 0
100 0 100 25 0 c21 0 25 5 25 30 0 26 -4 30 -26 30 -19 0 -25 5 -22 18 2 9 13
18 25 20 25 4 41 51 21 63 -19 12 -59 11 -87 -4z"/>
<path d="M1485 3599 c-76 -18 -118 -81 -119 -175 0 -82 26 -132 84 -161 110
-57 228 3 246 124 15 99 -37 189 -121 212 -22 6 -42 10 -45 10 -3 -1 -23 -5
-45 -10z m80 -75 c45 -18 61 -131 24 -178 -16 -20 -29 -26 -58 -26 -47 0 -71
24 -78 79 -13 94 39 152 112 125z"/>
<path d="M2960 3425 l0 -175 45 0 45 0 0 175 0 175 -45 0 -45 0 0 -175z"/>
<path d="M3220 3425 l0 -175 40 0 40 0 0 55 0 55 50 0 c90 0 133 39 133 120 0
46 -25 87 -64 107 -14 7 -62 13 -111 13 l-88 0 0 -175z"/>
<path d="M3830 3425 l0 -175 40 0 c22 0 40 5 40 11 0 5 10 3 22 -5 36 -25 83
-20 120 13 29 26 33 35 36 97 3 60 1 74 -20 104 -30 45 -81 60 -127 37 l-31
-15 0 54 0 54 -40 0 -40 0 0 -175z"/>
<path d="M4140 3425 l0 -175 40 0 40 0 0 175 0 175 -40 0 -40 0 0 -175z"/>
<path d="M6800 3425 l0 -175 40 0 40 0 0 78 c0 105 31 150 74 106 12 -12 16
-36 16 -100 l0 -84 40 0 40 0 0 104 c0 89 -3 107 -20 129 -27 34 -79 44 -119
24 l-31 -15 0 54 0 54 -40 0 -40 0 0 -175z"/>
<path d="M7510 3425 l0 -175 40 0 40 0 0 70 0 70 70 0 70 0 0 -70 0 -70 40 0
40 0 0 175 0 175 -40 0 -40 0 0 -70 0 -70 -70 0 -70 0 0 70 0 70 -40 0 -40 0
0 -175z"/>
<path d="M4990 3545 c0 -28 -4 -35 -20 -35 -16 0 -20 -7 -20 -30 0 -23 4 -30
20 -30 18 0 20 -7 20 -84 0 -80 1 -86 27 -106 19 -14 38 -20 62 -18 31 3 36 7
39 30 3 22 -2 30 -22 38 -24 9 -26 14 -26 75 0 63 1 65 25 65 21 0 25 5 25 30
0 25 -4 30 -25 30 -22 0 -25 4 -25 35 0 34 -1 35 -40 35 -39 0 -40 -1 -40 -35z"/>
<path d="M6630 3545 c0 -28 -4 -35 -20 -35 -16 0 -20 -7 -20 -30 0 -23 4 -30
20 -30 18 0 20 -7 20 -84 0 -80 1 -86 27 -106 19 -14 38 -20 62 -18 31 3 36 7
39 30 3 22 -2 30 -22 38 -24 9 -26 14 -26 75 0 63 1 65 25 65 21 0 25 5 25 30
0 25 -4 30 -25 30 -22 0 -25 4 -25 35 0 34 -1 35 -40 35 -39 0 -40 -1 -40 -35z"/>
<path d="M8670 3545 c0 -28 -4 -35 -20 -35 -16 0 -20 -7 -20 -30 0 -23 4 -30
20 -30 18 0 20 -7 20 -82 0 -46 4 -88 8 -94 20 -30 103 -47 117 -23 13 19 -4
59 -25 59 -18 0 -20 7 -20 70 0 68 1 70 25 70 21 0 25 5 25 30 0 25 -4 30 -25
30 -22 0 -25 4 -25 35 0 34 -1 35 -40 35 -39 0 -40 -1 -40 -35z"/>
<path d="M2321 3503 c-45 -22 -76 -89 -67 -146 9 -54 21 -75 59 -97 65 -40
157 -17 183 45 19 46 19 45 -26 45 -29 0 -42 -5 -50 -20 -14 -26 -56 -26 -70
-1 -15 29 -12 87 6 105 21 22 51 20 64 -4 8 -15 21 -20 50 -20 46 0 45 -1 25
46 -24 58 -106 80 -174 47z"/>
<path d="M2733 3505 c-30 -13 -53 -41 -53 -64 0 -14 73 -14 87 0 15 15 58 7
58 -11 0 -10 -15 -17 -49 -22 -67 -9 -100 -35 -104 -81 -3 -29 3 -42 23 -63
23 -23 32 -25 73 -20 26 3 68 5 95 5 l47 0 0 101 c0 56 -5 110 -11 122 -13 23
-67 48 -106 48 -15 -1 -42 -7 -60 -15z"/>
<path d="M4461 3503 c-45 -22 -76 -89 -67 -146 9 -54 21 -75 59 -97 65 -40
157 -17 183 45 19 46 19 45 -26 45 -29 0 -42 -5 -50 -20 -14 -26 -56 -26 -70
-1 -15 29 -12 87 6 105 21 22 51 20 64 -4 8 -15 21 -20 50 -20 46 0 45 -1 25
46 -24 58 -106 80 -174 47z"/>
<path d="M4743 3505 c-30 -13 -53 -41 -53 -64 0 -6 18 -11 40 -11 22 0 40 5
40 10 0 14 57 13 66 -1 9 -16 -11 -26 -68 -33 -62 -9 -88 -33 -88 -85 0 -55
38 -85 95 -77 22 4 64 6 93 6 l52 -1 0 101 c0 56 -5 110 -11 122 -13 23 -67
48 -106 48 -15 -1 -42 -7 -60 -15z"/>
<path d="M5351 3503 c-45 -22 -76 -89 -67 -146 9 -54 21 -75 59 -97 67 -41
164 -13 193 55 54 130 -63 248 -185 188z"/>
<path d="M5698 3506 c-16 -8 -28 -11 -28 -5 0 5 -18 9 -40 9 l-40 0 0 -130 0
-130 40 0 40 0 0 78 c0 105 31 150 74 106 12 -12 16 -36 16 -100 l0 -84 40 0
40 0 0 104 c0 94 -2 107 -22 131 -28 32 -83 42 -120 21z"/>
<path d="M6073 3505 c-51 -22 -75 -69 -70 -138 4 -75 41 -117 109 -124 92 -11
148 43 148 140 0 63 -23 101 -76 123 -42 17 -70 17 -111 -1z"/>
<path d="M7161 3503 c-62 -31 -88 -134 -50 -205 28 -52 119 -73 184 -43 26 13
55 49 55 70 0 12 -73 3 -95 -11 -27 -18 -57 -7 -75 26 -10 19 -7 20 80 20 l90
0 0 31 c0 100 -97 157 -189 112z"/>
<path d="M7933 3505 c-93 -40 -98 -207 -8 -249 77 -37 185 0 185 63 0 16 -72
13 -94 -4 -26 -19 -32 -19 -56 5 -34 34 -24 40 71 40 l91 0 -7 43 c-9 56 -29
86 -70 103 -43 17 -71 17 -112 -1z"/>
<path d="M8213 3505 c-30 -13 -53 -41 -53 -64 0 -6 18 -11 40 -11 22 0 40 5
40 10 0 14 57 13 66 -1 9 -16 -11 -26 -68 -33 -62 -9 -88 -33 -88 -85 0 -55
38 -85 95 -77 22 4 64 6 93 6 l52 -1 0 101 c0 56 -5 110 -11 122 -13 23 -67
48 -106 48 -15 -1 -42 -7 -60 -15z"/>
<path d="M8547 3513 c-4 -4 -30 -6 -57 -4 l-50 2 0 -131 0 -130 40 0 40 0 0
83 c0 91 8 107 51 107 21 0 29 7 38 32 9 24 8 34 -1 40 -16 10 -52 10 -61 1z"/>
<path d="M2130 3380 l0 -130 40 0 40 0 0 130 0 130 -40 0 -40 0 0 -130z"/>
<path d="M2550 3380 l0 -130 40 0 40 0 0 130 0 130 -40 0 -40 0 0 -130z"/>
<path d="M3530 3403 c1 -112 6 -130 47 -151 32 -18 67 -14 97 9 21 17 26 18
26 5 0 -12 10 -16 35 -16 l35 0 0 130 0 130 -40 0 -40 0 0 -90 c0 -79 -2 -91
-20 -100 -14 -8 -26 -8 -40 0 -18 9 -20 21 -20 100 l0 90 -40 0 -40 0 0 -107z"/>
<path d="M4270 3380 l0 -130 40 0 40 0 0 130 0 130 -40 0 -40 0 0 -130z"/>
<path d="M5160 3380 l0 -130 40 0 40 0 0 130 0 130 -40 0 -40 0 0 -130z"/>
<path d="M1613 2873 c-25 -53 -28 -68 -28 -163 0 -95 3 -110 28 -162 28 -56
30 -58 69 -58 34 0 39 3 33 18 -46 109 -49 120 -48 202 0 81 4 98 48 203 6 14
1 17 -33 17 -39 0 -41 -2 -69 -57z"/>
<path d="M1850 2920 c-47 -11 -90 -61 -90 -104 0 -49 27 -75 105 -101 78 -25
101 -48 71 -71 -29 -21 -64 -17 -90 11 -17 18 -34 25 -60 25 -40 0 -42 -6 -22
-54 30 -71 177 -90 241 -30 20 19 25 32 25 73 0 59 -23 82 -104 106 -66 20
-79 28 -74 51 5 29 73 32 90 5 16 -26 88 -31 88 -6 0 68 -91 116 -180 95z"/>
<path d="M2535 2921 c-70 -17 -95 -45 -95 -106 0 -48 33 -80 106 -100 78 -23
94 -37 69 -65 -25 -27 -61 -25 -91 5 -17 17 -36 25 -59 25 -41 0 -45 -18 -15
-67 42 -69 196 -70 244 -2 9 13 16 41 16 62 0 51 -32 81 -106 102 -72 21 -93
37 -74 59 19 23 77 21 90 -4 8 -15 21 -20 51 -20 40 0 41 1 34 28 -16 65 -91
102 -170 83z"/>
<path d="M5371 2917 c-38 -13 -68 -49 -73 -87 -3 -22 1 -25 33 -28 29 -2 37 1
47 22 15 33 48 43 73 20 10 -9 19 -25 19 -35 0 -9 -38 -55 -85 -100 -67 -65
-85 -89 -85 -111 l0 -28 125 0 125 0 0 30 0 30 -66 0 -66 0 60 65 c67 72 83
114 62 166 -22 51 -105 79 -169 56z"/>
<path d="M5708 2923 c-63 -10 -108 -86 -108 -183 0 -70 17 -115 57 -150 34
-30 40 -32 96 -28 52 4 64 9 88 36 64 72 65 217 1 285 -22 23 -84 51 -102 45
-3 0 -17 -3 -32 -5z m82 -103 c15 -28 12 -127 -5 -160 -11 -21 -23 -30 -40
-30 -46 0 -76 84 -56 158 19 70 72 87 101 32z"/>
<path d="M6014 2919 c-39 -11 -72 -47 -80 -87 -6 -32 -6 -32 35 -32 28 0 41 4
41 13 0 24 37 49 59 42 28 -9 44 -40 32 -62 -5 -10 -43 -51 -85 -92 -60 -58
-76 -79 -76 -102 l0 -29 125 0 125 0 0 30 0 30 -72 0 -73 0 56 53 c31 28 64
67 74 86 32 63 -2 130 -76 151 -39 11 -43 11 -85 -1z"/>
<path d="M6331 2920 c-40 -10 -76 -45 -85 -82 -6 -27 -5 -28 30 -28 26 0 43 7
60 25 13 14 30 25 38 25 16 0 46 -26 46 -40 0 -18 -33 -40 -61 -40 -27 0 -29
-3 -29 -35 0 -32 2 -35 29 -35 44 0 61 -10 61 -34 0 -46 -56 -63 -87 -26 -23
27 -93 29 -93 2 0 -69 117 -114 204 -78 68 28 88 105 41 152 l-25 25 20 26
c61 77 -36 170 -149 143z"/>
<path d="M8325 2913 c37 -86 49 -134 48 -208 0 -75 -5 -95 -48 -197 -6 -15 -1
-18 33 -18 39 0 41 2 69 58 25 52 28 67 28 162 0 95 -3 110 -28 163 -28 55
-30 57 -69 57 -34 0 -39 -2 -33 -17z"/>
<path d="M2080 2745 l0 -175 40 0 40 0 0 70 0 70 70 0 70 0 0 -70 0 -70 40 0
40 0 0 175 0 175 -40 0 -40 0 0 -70 0 -70 -70 0 -70 0 0 70 0 70 -40 0 -40 0
0 -175z"/>
<path d="M2864 2893 c8 -16 37 -68 65 -118 45 -79 51 -97 51 -147 l0 -58 40 0
40 0 0 59 c0 50 6 70 33 118 19 32 48 84 66 116 l32 57 -48 0 -48 0 -34 -65
c-18 -36 -37 -65 -41 -65 -4 0 -23 29 -41 65 l-34 65 -48 0 -48 0 15 -27z"/>
<path d="M4000 2745 l0 -175 40 0 c22 0 40 5 40 11 0 5 10 3 22 -5 35 -25 83
-20 118 12 78 69 49 230 -46 248 -32 6 -72 -8 -86 -30 -4 -6 -8 17 -8 52 l0
62 -40 0 -40 0 0 -175z"/>
<path d="M4900 2745 l0 -175 40 0 c40 0 40 0 40 39 0 22 4 42 9 46 6 3 24 -15
41 -40 30 -43 33 -45 81 -45 l51 0 -44 63 c-24 34 -47 67 -51 73 -3 6 14 35
38 63 25 29 45 55 45 57 0 2 -21 4 -47 4 -45 0 -50 -3 -85 -46 l-38 -47 0 92
0 91 -40 0 -40 0 0 -175z"/>
<path d="M7140 2866 l0 -54 -31 15 c-46 23 -97 8 -127 -37 -21 -30 -23 -44
-20 -104 3 -62 7 -71 36 -97 37 -33 84 -38 120 -13 12 8 22 10 22 5 0 -6 18
-11 40 -11 l40 0 0 175 0 175 -40 0 -40 0 0 -54z"/>
<path d="M7430 2865 c0 -28 -4 -35 -20 -35 -16 0 -20 -7 -20 -30 0 -23 4 -30
20 -30 18 0 20 -7 20 -82 0 -46 4 -88 8 -94 20 -30 103 -47 117 -23 13 19 -4
59 -25 59 -18 0 -20 7 -20 70 0 68 1 70 25 70 21 0 25 5 25 30 0 25 -4 30 -25
30 -22 0 -25 4 -25 35 0 34 -1 35 -40 35 -39 0 -40 -1 -40 -35z"/>
<path d="M3283 2826 c-82 -37 -97 -171 -27 -237 22 -20 36 -24 91 -24 60 0 67
2 94 33 16 18 29 37 29 42 0 15 -73 11 -94 -5 -27 -20 -42 -19 -66 5 -34 34
-24 40 70 40 90 0 90 0 90 25 0 39 -26 92 -54 110 -35 23 -95 28 -133 11z"/>
<path d="M3563 2825 c-30 -13 -53 -41 -53 -64 0 -14 73 -14 87 0 15 15 58 7
58 -11 0 -10 -15 -17 -49 -22 -67 -9 -100 -35 -104 -81 -3 -29 3 -42 23 -63
23 -23 32 -25 73 -20 26 3 68 5 95 5 l47 0 0 101 c0 56 -5 110 -11 122 -13 23
-67 48 -106 48 -15 -1 -42 -7 -60 -15z"/>
<path d="M3892 2824 c-12 -8 -22 -10 -22 -5 0 6 -18 11 -40 11 l-40 0 0 -130
0 -130 40 0 40 0 0 76 c0 90 10 114 49 114 22 0 31 7 41 29 6 17 9 35 5 40 -9
16 -47 13 -73 -5z"/>
<path d="M4373 2825 c-51 -22 -75 -69 -70 -138 4 -75 41 -117 109 -124 92 -11
148 43 148 140 0 63 -23 101 -76 123 -42 17 -70 17 -111 -1z"/>
<path d="M4683 2833 c-12 -2 -36 -20 -53 -39 -26 -30 -30 -42 -30 -92 0 -73
24 -115 75 -132 55 -18 113 -7 148 29 26 25 31 39 34 88 7 109 -62 168 -174
146z"/>
<path d="M6753 2833 c-12 -2 -36 -20 -53 -39 -26 -30 -30 -43 -30 -90 0 -69
21 -111 65 -130 80 -33 185 4 185 65 0 17 -68 13 -95 -5 -23 -15 -27 -15 -50
0 -14 9 -25 23 -25 31 0 12 17 15 85 15 l85 0 0 35 c0 90 -67 137 -167 118z"/>
<path d="M7790 2822 c-122 -60 -73 -262 63 -262 80 0 131 54 131 140 0 110
-97 171 -194 122z"/>
<path d="M8138 2826 c-16 -8 -28 -11 -28 -5 0 5 -18 9 -40 9 l-40 0 0 -130 0
-130 40 0 40 0 0 84 c0 64 4 88 16 100 43 44 74 -1 74 -106 l0 -78 40 0 40 0
0 95 c0 107 -14 150 -56 165 -35 14 -54 12 -86 -4z"/>
<path d="M7270 2700 l0 -130 45 0 45 0 0 130 0 130 -45 0 -45 0 0 -130z"/>
<path d="M7600 2700 l0 -130 40 0 40 0 0 130 0 130 -40 0 -40 0 0 -130z"/>
<path d="M1610 2263 c0 -5 -9 -60 -20 -123 -25 -143 -25 -150 -1 -150 16 0 21
13 32 85 6 46 15 82 19 80 3 -2 15 -40 25 -85 16 -71 21 -80 41 -80 17 0 32
18 70 85 26 47 49 83 51 82 3 -3 -11 -92 -23 -145 -4 -20 -1 -23 18 -20 20 3
24 13 40 108 9 58 20 120 23 138 5 29 4 32 -19 32 -20 0 -34 -18 -89 -111
l-64 -112 -17 74 c-31 141 -35 149 -61 149 -14 0 -25 -3 -25 -7z"/>
<path d="M1952 2130 c-69 -132 -72 -140 -50 -140 17 0 29 10 42 35 18 33 22
35 73 35 46 0 53 -3 53 -19 0 -33 11 -51 31 -51 24 0 24 3 -6 150 -14 68 -25
124 -25 126 0 2 -10 4 -22 4 -19 0 -35 -24 -96 -140z"/>
<path d="M2205 2258 c-2 -7 -11 -58 -20 -113 -8 -55 -18 -112 -21 -127 -5 -25
-3 -28 19 -28 22 0 25 5 31 50 6 47 8 50 36 50 26 0 31 -5 47 -50 15 -43 21
-50 44 -50 l27 0 -19 51 -20 52 26 27 c14 15 28 43 32 63 4 29 1 40 -20 61
-23 23 -35 26 -92 26 -44 0 -67 -4 -70 -12z"/>
<path d="M2536 2158 c-10 -62 -20 -125 -23 -140 -5 -23 -2 -28 15 -28 24 0 27
8 43 118 l13 83 54 -101 c43 -81 58 -100 76 -100 20 0 23 8 40 113 10 61 20
124 23 140 5 23 2 27 -16 27 -11 0 -21 -1 -22 -2 0 -2 -8 -48 -18 -103 l-17
-100 -46 85 c-26 47 -50 93 -53 103 -4 9 -17 17 -29 17 -20 0 -23 -9 -40 -112z"/>
<path d="M2840 2263 c0 -5 -9 -60 -20 -123 -28 -163 -32 -150 51 -150 85 0
122 18 151 73 22 44 27 122 9 155 -7 13 -28 30 -46 38 -36 15 -145 20 -145 7z
m148 -59 c9 -13 12 -36 9 -67 -5 -62 -43 -102 -104 -112 -51 -8 -50 -11 -28
115 8 47 15 87 15 89 0 2 21 1 47 -2 29 -3 52 -12 61 -23z"/>
<path d="M3096 2160 c-18 -117 -16 -135 26 -164 52 -37 145 -6 173 56 8 18 21
75 28 126 l14 92 -22 0 c-20 0 -23 -9 -39 -102 -14 -86 -21 -107 -42 -125 -46
-41 -104 -24 -104 31 0 29 12 114 25 174 4 18 1 22 -18 22 -22 0 -24 -7 -41
-110z"/>
<path d="M3447 2255 c-39 -20 -63 -52 -78 -103 -17 -61 -6 -111 32 -146 29
-26 37 -28 81 -23 38 5 50 3 55 -8 5 -15 53 -22 53 -8 0 3 -7 14 -16 24 -15
17 -15 20 5 47 25 36 43 111 35 152 -14 67 -100 100 -167 65z m101 -41 c29
-20 31 -96 3 -137 -16 -24 -19 -26 -31 -12 -7 8 -24 15 -37 15 -25 0 -25 0 -8
-26 20 -31 15 -39 -19 -30 -66 16 -72 112 -11 173 36 36 68 42 103 17z"/>
<path d="M3681 2208 c-21 -126 -23 -148 -17 -172 13 -52 104 -72 163 -36 42
25 49 40 67 146 20 115 20 124 -3 124 -16 0 -21 -12 -31 -72 -18 -116 -31
-151 -63 -166 -33 -16 -73 -9 -86 16 -6 11 -4 44 5 92 19 108 18 130 -5 130
-15 0 -21 -12 -30 -62z"/>
<path d="M3956 2158 c-10 -62 -20 -125 -23 -140 l-5 -28 91 0 c74 0 91 3 91
15 0 12 -14 15 -65 15 -70 0 -70 0 -59 59 6 31 7 31 70 31 57 0 64 2 64 20 0
18 -7 20 -61 20 l-61 0 6 31 c3 17 6 35 6 40 0 4 30 9 67 11 55 2 68 6 71 21
3 15 -6 17 -85 17 l-89 0 -18 -112z"/>
<path d="M4310 2263 c0 -4 -9 -60 -20 -123 -25 -143 -25 -150 -1 -150 21 0 24
8 42 123 l12 78 51 -98 c44 -83 55 -98 76 -98 23 0 25 5 42 105 9 58 20 120
23 138 5 29 4 32 -18 32 -22 0 -25 -5 -36 -87 -7 -49 -15 -95 -17 -103 -3 -9
-27 27 -57 85 -40 76 -58 101 -75 103 -12 2 -22 0 -22 -5z"/>
<path d="M4602 2130 c-69 -132 -72 -140 -50 -140 17 0 29 10 42 35 18 33 22
35 73 35 46 0 53 -3 53 -19 0 -33 11 -51 31 -51 24 0 24 3 -6 150 -14 68 -25
124 -25 126 0 2 -10 4 -22 4 -19 0 -35 -24 -96 -140z"/>
<path d="M4840 2250 c0 -17 7 -20 40 -20 22 0 40 -3 40 -7 0 -10 -29 -181 -35
-210 -4 -19 -1 -23 18 -23 22 0 25 6 42 120 l18 120 43 0 c37 0 54 11 54 36 0
2 -49 4 -110 4 -103 0 -110 -1 -110 -20z"/>
<path d="M5242 2250 c-84 -52 -98 -216 -21 -256 95 -49 199 37 199 163 0 47
-4 59 -29 84 -36 36 -98 40 -149 9z m119 -41 c18 -18 21 -30 16 -72 -4 -42
-10 -56 -41 -84 -43 -39 -68 -42 -101 -8 -30 30 -32 72 -6 124 31 60 93 79
132 40z"/>
<path d="M5476 2158 c-10 -62 -20 -125 -23 -140 -5 -23 -2 -28 15 -28 24 0 27
8 43 118 l13 83 54 -101 c43 -81 58 -100 76 -100 20 0 23 8 40 113 10 61 20
124 23 140 5 23 2 27 -16 27 -11 0 -21 -1 -22 -2 0 -2 -8 -48 -18 -103 l-17
-100 -46 85 c-26 47 -50 93 -53 103 -4 9 -17 17 -29 17 -20 0 -23 -9 -40 -112z"/>
<path d="M5885 2238 c-3 -18 -14 -81 -24 -140 l-18 -108 22 0 c20 0 24 7 31
58 l9 57 68 3 69 3 -7 -43 c-3 -24 -9 -51 -11 -60 -4 -14 1 -18 18 -18 23 0
25 6 42 113 10 61 20 124 23 140 5 22 2 27 -15 27 -22 0 -27 -10 -37 -77 l-7
-43 -68 0 -67 0 8 43 c13 65 11 77 -11 77 -14 0 -21 -9 -25 -32z"/>
<path d="M6314 2251 c-69 -42 -99 -181 -51 -236 31 -36 98 -44 146 -17 37 20
71 73 71 109 0 21 -5 23 -54 23 -45 0 -54 -3 -59 -20 -4 -17 0 -20 29 -20 42
0 43 -11 3 -44 -38 -32 -63 -33 -94 -1 -30 29 -32 65 -6 121 31 68 114 85 139
29 7 -15 20 -25 32 -25 30 0 25 36 -9 71 -36 35 -98 40 -147 10z"/>
<path d="M6555 2258 c-2 -7 -11 -58 -20 -113 -8 -55 -18 -112 -21 -127 -5 -25
-3 -28 19 -28 23 0 26 5 32 60 l7 60 70 0 c61 0 69 -2 64 -17 -2 -10 -8 -37
-11 -61 -7 -42 -6 -43 16 -40 21 3 25 12 41 108 9 58 20 120 23 138 5 29 4 32
-19 32 -22 0 -25 -5 -31 -60 l-7 -60 -70 0 c-61 0 -69 2 -64 18 2 9 8 36 11
60 6 38 5 42 -14 42 -12 0 -23 -6 -26 -12z"/>
<path d="M6973 2251 c-35 -22 -51 -68 -34 -100 6 -10 32 -27 58 -37 65 -24 78
-36 64 -63 -21 -39 -89 -42 -106 -3 -13 29 -55 31 -55 2 0 -36 44 -70 90 -70
75 0 120 37 120 99 0 34 -20 51 -82 70 -53 17 -64 35 -39 60 27 27 77 28 91 1
14 -26 50 -27 50 -1 0 29 -47 61 -89 61 -20 0 -50 -9 -68 -19z"/>
<path d="M7230 2248 c-47 -32 -70 -82 -70 -149 0 -42 5 -63 20 -82 23 -29 74
-43 117 -33 28 8 93 67 93 85 0 21 -41 11 -64 -16 -29 -34 -90 -38 -112 -8
-18 24 -18 77 0 120 28 66 128 87 142 30 4 -18 13 -25 31 -25 22 0 24 3 19 28
-11 43 -50 72 -100 72 -28 0 -54 -8 -76 -22z"/>
<path d="M7465 2238 c-3 -18 -14 -81 -24 -140 l-18 -108 22 0 c20 0 24 7 31
58 l9 57 68 3 69 3 -7 -43 c-3 -24 -9 -51 -11 -60 -4 -14 1 -18 18 -18 23 0
25 6 42 113 10 61 20 124 23 140 5 22 2 27 -15 27 -22 0 -27 -10 -37 -77 l-7
-43 -68 0 -67 0 8 43 c13 65 11 77 -11 77 -14 0 -21 -9 -25 -32z"/>
<path d="M7790 2248 c-47 -33 -70 -82 -70 -150 0 -75 26 -108 90 -115 36 -4
52 0 79 19 61 41 76 71 76 150 0 64 -2 72 -28 94 -37 32 -101 33 -147 2z m119
-44 c50 -64 -5 -178 -86 -178 -42 0 -63 23 -63 69 0 52 20 96 54 116 43 26 71
24 95 -7z"/>
<path d="M8080 2248 c-47 -33 -70 -82 -70 -150 0 -75 26 -108 90 -115 36 -4
52 0 79 19 61 41 76 71 76 150 0 64 -2 72 -28 94 -37 32 -101 33 -147 2z m119
-44 c50 -64 -5 -178 -86 -178 -42 0 -63 23 -63 69 0 52 20 96 54 116 43 26 71
24 95 -7z"/>
<path d="M8325 2238 c-3 -18 -14 -82 -24 -141 l-18 -108 85 3 c57 2 87 7 90
16 3 9 -14 12 -62 12 -64 0 -66 1 -61 23 8 37 35 201 35 215 0 6 -9 12 -20 12
-14 0 -21 -9 -25 -32z"/>
<path d="M4155 1715 c-14 -13 -25 -31 -25 -40 0 -23 37 -18 43 6 4 16 12 20
39 17 54 -5 49 -35 -21 -116 -34 -38 -61 -75 -61 -81 0 -7 28 -11 80 -11 64 0
80 3 80 15 0 11 -12 15 -52 15 l-52 0 35 38 c50 51 69 82 69 110 0 33 -43 72
-80 72 -19 0 -40 -9 -55 -25z"/>
<path d="M4359 1714 c-21 -23 -24 -35 -24 -106 0 -75 2 -81 28 -104 46 -39
106 -25 128 30 28 65 6 184 -36 200 -35 13 -72 6 -96 -20z m89 -27 c21 -24 25
-91 8 -130 -16 -41 -38 -47 -68 -20 -20 18 -26 110 -8 144 12 22 52 25 68 6z"/>
<path d="M4565 1715 c-14 -13 -25 -31 -25 -40 0 -23 37 -18 43 6 4 16 12 20
39 17 54 -5 49 -35 -21 -116 -34 -38 -61 -75 -61 -81 0 -7 28 -11 80 -11 64 0
80 3 80 15 0 11 -12 15 -52 15 l-52 0 35 38 c50 51 69 82 69 110 0 33 -43 72
-80 72 -19 0 -40 -9 -55 -25z"/>
<path d="M5162 1717 c-12 -13 -22 -31 -22 -40 0 -24 37 -21 43 3 6 25 62 28
71 4 10 -26 8 -28 -54 -99 -33 -37 -60 -74 -60 -81 0 -11 19 -14 80 -14 64 0
80 3 80 15 0 11 -12 15 -51 15 l-51 0 40 48 c52 63 64 87 56 117 -14 55 -93
74 -132 32z"/>
<path d="M5373 1725 c-44 -31 -54 -156 -18 -211 18 -27 74 -41 104 -25 37 20
54 67 49 139 -4 55 -8 68 -32 88 -31 28 -72 31 -103 9z m85 -50 c17 -37 15
-107 -4 -133 -20 -29 -54 -25 -72 8 -15 30 -11 112 8 135 20 24 55 19 68 -10z"/>
<path d="M5572 1717 c-12 -13 -22 -31 -22 -40 0 -24 37 -21 43 3 6 25 62 28
71 4 10 -26 8 -28 -54 -99 -33 -37 -60 -74 -60 -81 0 -11 19 -14 80 -14 64 0
80 3 80 15 0 11 -12 15 -51 15 l-51 0 40 48 c52 63 64 87 56 117 -14 55 -93
74 -132 32z"/>
<path d="M5772 1717 c-12 -13 -22 -31 -22 -40 0 -24 37 -21 43 3 6 25 62 28
71 4 10 -26 8 -28 -54 -99 -33 -37 -60 -74 -60 -81 0 -11 19 -14 80 -14 64 0
80 3 80 15 0 11 -12 15 -51 15 l-51 0 40 48 c52 63 64 87 56 117 -14 55 -93
74 -132 32z"/>
</g>
</svg>
