<?xml version="1.0" standalone="no"?>
<!DOCTYPE svg PUBLIC "-//W3C//DTD SVG 20010904//EN"
 "http://www.w3.org/TR/2001/REC-SVG-20010904/DTD/svg10.dtd">
<svg version="1.0" xmlns="http://www.w3.org/2000/svg"
 width="1004.000000pt" height="591.000000pt" viewBox="0 0 1004.000000 591.000000"
 preserveAspectRatio="xMidYMid meet">
<metadata>
Created by potrace 1.16, written by Peter Selinger 2001-2019
</metadata>
<g transform="translate(0.000000,591.000000) scale(0.100000,-0.100000)"
fill="#000000" stroke="none">
<path d="M4482 4364 c4 -90 3 -101 -8 -76 -18 44 -51 62 -110 62 -71 0 -108
-31 -130 -108 -28 -96 -1 -206 60 -243 72 -44 165 -14 192 62 l12 34 1 -52 1
-53 45 0 45 0 0 240 0 240 -56 0 -57 0 5 -106z m-20 -138 c24 -39 19 -109 -10
-138 -65 -65 -148 31 -108 126 26 62 83 68 118 12z"/>
<path d="M5240 4230 l0 -240 50 0 50 0 0 240 0 240 -50 0 -50 0 0 -240z"/>
<path d="M3550 4395 l0 -45 103 0 102 -1 -72 -45 c-65 -41 -73 -49 -73 -78 l0
-31 59 -1 c87 -1 131 -34 117 -87 -15 -63 -130 -60 -157 5 -8 19 -17 27 -28
24 -9 -3 -28 -8 -43 -12 -22 -5 -28 -12 -28 -34 0 -33 31 -75 70 -95 34 -18
165 -20 207 -4 84 32 117 138 64 208 -9 12 -41 30 -71 40 l-54 18 62 42 62 42
0 49 0 50 -160 0 -160 0 0 -45z"/>
<path d="M3957 4343 c-4 -3 -7 -84 -7 -180 l0 -173 55 0 55 0 0 90 c0 102 15
145 56 160 14 6 36 7 50 4 22 -6 24 -3 24 27 0 19 3 44 6 57 6 20 3 22 -39 22
-58 0 -85 -23 -102 -85 l-14 -50 0 68 -1 67 -38 0 c-21 0 -42 -3 -45 -7z"/>
<path d="M4820 4111 l0 -241 51 0 51 0 -4 94 c-3 91 -3 93 14 65 23 -38 48
-49 108 -49 45 0 56 4 85 33 41 41 59 103 52 178 -9 107 -59 159 -153 159 -42
0 -56 -5 -78 -26 -14 -15 -27 -32 -27 -38 -1 -6 -4 5 -8 24 -6 33 -9 35 -48
38 l-43 3 0 -240z m224 130 c10 -11 20 -37 23 -58 14 -106 -86 -162 -132 -74
-20 40 -19 79 5 119 16 26 26 32 53 32 21 0 41 -8 51 -19z"/>
<path d="M5484 4336 c-35 -16 -74 -60 -74 -86 0 -11 14 -21 40 -29 40 -12 42
-11 69 18 32 35 70 40 96 15 31 -32 13 -44 -99 -65 -81 -15 -116 -49 -116
-114 0 -66 31 -95 102 -95 60 0 90 16 119 64 l19 31 0 -42 0 -43 48 0 48 0 -4
123 c-4 143 -13 177 -53 212 -26 21 -40 25 -97 25 -37 -1 -81 -7 -98 -14z"/>
<path d="M5870 4331 c-104 -56 -114 -254 -16 -323 37 -27 150 -37 196 -18 39
16 80 65 80 95 0 28 -3 30 -51 39 -34 6 -37 4 -49 -24 -22 -53 -97 -53 -125 0
-30 58 -8 154 38 165 32 8 65 -9 77 -40 8 -22 10 -23 52 -11 49 15 58 35 33
72 -41 63 -158 85 -235 45z"/>
<path d="M6240 4328 c-106 -71 -107 -267 -1 -326 53 -30 161 -31 209 -2 26 16
62 70 62 94 0 2 -20 7 -46 11 -41 6 -47 4 -65 -19 -20 -26 -58 -34 -94 -20
-14 6 -45 53 -45 69 0 3 54 5 120 5 l120 0 0 45 c0 56 -19 102 -54 135 -23 20
-39 25 -99 28 -62 3 -77 1 -107 -20z"/>
<path d="M7421 3607 c-27 -13 -37 -29 -46 -69 -3 -16 -12 -28 -20 -28 -10 0
-15 -10 -15 -30 0 -20 5 -30 15 -30 12 0 15 -18 15 -100 l0 -100 45 0 45 0 0
100 0 100 25 0 c21 0 25 5 25 30 0 26 -4 30 -26 30 -19 0 -25 5 -22 18 2 9 13
18 25 20 25 4 41 51 21 63 -19 12 -59 11 -87 -4z"/>
<path d="M3255 3595 c-54 -19 -75 -48 -75 -100 0 -36 5 -48 31 -69 17 -14 36
-26 42 -26 28 0 88 -22 103 -37 15 -16 15 -18 -6 -35 -30 -25 -56 -23 -86 7
-34 34 -94 36 -94 2 0 -53 63 -97 140 -97 107 0 166 72 128 154 -12 27 -70 60
-125 71 -68 14 -65 65 4 65 26 0 36 -5 40 -20 4 -16 14 -20 48 -20 l44 0 -9
31 c-16 54 -39 73 -105 83 -24 3 -56 0 -80 -9z"/>
<path d="M6510 3600 c-49 -12 -106 -75 -115 -129 -27 -159 94 -274 228 -217
39 16 87 70 87 97 0 15 -7 19 -39 19 -30 0 -42 -5 -55 -25 -24 -36 -86 -35
-115 1 -32 40 -29 126 4 159 34 35 76 33 108 -5 20 -23 34 -30 61 -30 43 0 47
17 16 67 -32 53 -108 79 -180 63z"/>
<path d="M1000 3426 l0 -176 40 0 40 0 0 60 c0 56 2 60 23 60 17 0 30 -14 55
-60 33 -60 34 -60 79 -60 24 0 43 4 41 8 -1 5 -16 34 -32 64 l-30 56 28 33
c25 29 28 39 23 82 -3 35 -11 56 -31 75 -25 25 -33 27 -131 30 l-105 4 0 -176z"/>
<path d="M2930 3425 l0 -175 40 0 40 0 0 175 0 175 -40 0 -40 0 0 -175z"/>
<path d="M3780 3425 l0 -175 40 0 40 0 0 90 c0 86 1 91 25 102 44 20 55 -2 55
-103 l0 -89 45 0 45 0 0 89 c0 48 -5 102 -11 120 -19 53 -91 78 -137 45 -22
-15 -22 -15 -22 40 l0 56 -40 0 -40 0 0 -175z"/>
<path d="M4670 3425 l0 -175 45 0 45 0 0 175 0 175 -45 0 -45 0 0 -175z"/>
<path d="M4930 3425 l0 -175 40 0 40 0 0 55 0 55 50 0 c90 0 133 39 133 120 0
46 -25 87 -64 107 -14 7 -62 13 -111 13 l-88 0 0 -175z"/>
<path d="M1393 3513 c-12 -2 -36 -20 -53 -39 -26 -30 -30 -43 -30 -90 0 -69
21 -111 65 -130 80 -33 185 4 185 65 0 17 -68 13 -95 -5 -23 -15 -27 -15 -50
0 -14 9 -25 23 -25 31 0 12 17 15 85 15 l85 0 0 35 c0 90 -67 137 -167 118z"/>
<path d="M1665 3511 c-77 -32 -96 -181 -30 -238 31 -27 90 -31 123 -7 20 14
22 14 22 -1 0 -35 -20 -55 -55 -55 -18 0 -37 5 -40 10 -8 12 -72 13 -79 1 -11
-17 36 -61 76 -72 41 -11 69 -8 121 13 48 19 57 52 57 208 l0 140 -40 0 c-31
0 -40 -4 -40 -17 0 -11 -3 -14 -8 -7 -19 29 -68 40 -107 25z"/>
<path d="M2123 3513 c-12 -2 -36 -20 -53 -39 -26 -30 -30 -42 -30 -92 0 -73
24 -115 75 -132 55 -18 113 -7 148 29 26 25 31 39 34 88 7 109 -62 168 -174
146z"/>
<path d="M2448 3504 c-16 -8 -28 -10 -28 -4 0 5 -18 10 -40 10 l-40 0 0 -130
0 -130 45 0 45 0 0 89 c0 101 11 123 55 103 24 -11 25 -16 25 -102 l0 -90 40
0 40 0 0 106 c0 103 -1 106 -29 135 -33 33 -70 37 -113 13z"/>
<path d="M2694 3505 c-26 -13 -54 -50 -54 -70 0 -10 77 -4 87 6 15 15 58 7 58
-10 0 -10 -20 -18 -59 -26 -66 -13 -96 -40 -96 -85 0 -42 29 -70 77 -77 30 -4
50 -1 68 11 14 9 25 12 25 6 0 -5 16 -10 35 -10 l36 0 -3 111 c-3 108 -4 113
-29 132 -36 26 -106 32 -145 12z"/>
<path d="M3553 3505 c-81 -35 -97 -170 -28 -235 32 -30 110 -38 153 -16 34 18
52 43 52 75 0 30 -64 30 -80 1 -13 -24 -52 -26 -71 -4 -7 9 -14 33 -14 54 0
21 7 45 14 54 19 23 62 21 68 -4 4 -16 14 -20 44 -20 34 0 39 3 39 23 0 13 -9
33 -21 46 -39 42 -98 52 -156 26z"/>
<path d="M4143 3505 c-51 -22 -75 -69 -70 -138 4 -75 41 -117 109 -124 92 -11
148 43 148 140 0 63 -23 101 -76 123 -42 17 -70 17 -111 -1z"/>
<path d="M4453 3513 c-12 -2 -36 -20 -53 -39 -26 -30 -30 -42 -30 -92 0 -73
24 -115 75 -132 55 -18 113 -7 148 29 26 25 31 39 34 88 7 109 -62 168 -174
146z"/>
<path d="M5347 3513 c-4 -4 -30 -6 -57 -4 l-50 2 0 -131 0 -130 40 0 40 0 0
83 c0 90 8 107 50 107 22 0 29 7 37 34 9 28 8 36 -4 40 -20 8 -48 7 -56 -1z"/>
<path d="M5523 3513 c-12 -2 -36 -20 -53 -39 -26 -30 -30 -43 -30 -90 0 -69
21 -111 65 -130 80 -33 185 4 185 65 0 17 -68 13 -95 -5 -23 -15 -27 -15 -50
0 -14 9 -25 23 -25 31 0 12 17 15 85 15 l85 0 0 35 c0 90 -67 137 -167 118z"/>
<path d="M5783 3505 c-35 -15 -53 -41 -53 -79 0 -36 32 -64 80 -72 22 -4 48
-13 57 -20 16 -12 16 -15 3 -24 -21 -14 -36 -12 -54 5 -13 14 -96 22 -96 10 0
-4 7 -19 15 -35 29 -57 152 -67 203 -17 52 53 24 118 -56 133 -57 10 -76 22
-61 40 15 18 33 18 49 -1 14 -17 90 -21 90 -4 0 24 -24 52 -55 65 -43 17 -81
17 -122 -1z"/>
<path d="M6053 3505 c-89 -38 -63 -133 42 -155 34 -7 55 -17 55 -25 0 -22 -39
-29 -59 -11 -10 9 -34 16 -54 16 -29 0 -37 -4 -37 -18 0 -34 46 -65 102 -69
70 -5 119 19 132 65 14 49 -16 84 -84 99 -64 14 -80 27 -52 42 21 11 52 5 52
-10 0 -5 18 -9 40 -9 22 0 40 5 40 11 0 24 -24 52 -55 65 -43 17 -81 17 -122
-1z"/>
<path d="M6823 3505 c-51 -22 -75 -69 -70 -138 4 -75 41 -117 109 -124 92 -11
148 43 148 140 0 63 -23 101 -76 123 -42 17 -70 17 -111 -1z"/>
<path d="M7156 3499 c-21 -17 -26 -18 -26 -5 0 12 -10 16 -35 16 l-35 0 0
-130 0 -130 40 0 40 0 0 90 c0 86 1 91 25 102 44 20 55 -2 55 -103 l0 -89 46
0 47 0 -5 103 c-6 119 -11 133 -49 152 -39 21 -72 19 -103 -6z"/>
<path d="M7623 3513 c-12 -2 -36 -20 -53 -39 -26 -30 -30 -43 -30 -90 0 -69
21 -111 65 -130 80 -33 185 4 185 65 0 17 -68 13 -95 -5 -23 -15 -27 -15 -50
0 -14 9 -25 23 -25 31 0 12 17 15 85 15 l85 0 0 35 c0 90 -67 137 -167 118z"/>
<path d="M7947 3513 c-4 -4 -30 -6 -57 -4 l-50 2 0 -131 0 -130 40 0 40 0 0
83 c0 90 8 107 50 107 22 0 29 7 37 34 9 28 8 36 -4 40 -20 8 -48 7 -56 -1z"/>
<path d="M8123 3513 c-12 -2 -36 -20 -53 -39 -26 -30 -30 -43 -30 -90 0 -69
21 -111 65 -130 80 -33 185 4 185 65 0 17 -68 13 -95 -5 -23 -15 -27 -15 -50
0 -14 9 -25 23 -25 31 0 12 17 15 85 15 l85 0 0 35 c0 90 -67 137 -167 118z"/>
<path d="M8436 3499 c-21 -17 -26 -18 -26 -5 0 12 -10 16 -35 16 l-35 0 0
-130 0 -130 40 0 40 0 0 90 c0 86 1 91 25 102 44 20 55 -2 55 -103 l0 -89 46
0 47 0 -5 103 c-6 119 -11 133 -49 152 -39 21 -72 19 -103 -6z"/>
<path d="M8713 3513 c-12 -2 -36 -20 -53 -39 -26 -30 -30 -42 -30 -92 0 -73
24 -115 75 -132 77 -26 155 7 170 73 7 26 6 27 -32 27 -27 0 -42 -6 -51 -20
-27 -44 -82 -9 -82 52 0 58 56 91 82 48 9 -14 24 -20 51 -20 38 0 39 1 32 27
-16 64 -77 92 -162 76z"/>
<path d="M8983 3506 c-82 -37 -97 -171 -27 -237 22 -20 36 -24 91 -24 60 0 67
2 94 33 16 18 29 37 29 42 0 15 -73 11 -94 -5 -27 -20 -42 -19 -66 5 -34 34
-24 40 70 40 90 0 90 0 90 25 0 39 -26 92 -54 110 -35 23 -95 28 -133 11z"/>
<path d="M1910 3380 l0 -130 40 0 40 0 0 130 0 130 -40 0 -40 0 0 -130z"/>
<path d="M2865 2870 c-49 -97 -50 -246 -3 -339 22 -42 27 -46 66 -49 46 -3 48
-1 27 31 -8 12 -22 51 -31 87 -22 85 -14 181 20 257 15 30 26 57 26 59 0 2
-18 4 -40 4 -38 0 -41 -3 -65 -50z"/>
<path d="M7070 2915 c0 -3 8 -22 19 -43 49 -99 52 -230 6 -329 -14 -31 -25
-57 -25 -59 0 -2 18 -4 40 -4 38 0 41 3 67 53 26 48 28 61 28 167 0 108 -2
118 -29 168 -27 49 -32 52 -68 52 -21 0 -38 -2 -38 -5z"/>
<path d="M3610 2735 l0 -175 40 0 40 0 0 175 0 175 -40 0 -40 0 0 -175z"/>
<path d="M5190 2735 l0 -175 40 0 c22 0 40 5 40 11 0 5 10 3 22 -5 36 -25 83
-20 120 13 29 26 33 35 36 97 3 60 1 74 -20 104 -30 45 -81 60 -127 37 l-31
-15 0 54 0 54 -40 0 -40 0 0 -175z"/>
<path d="M5500 2735 l0 -175 40 0 40 0 0 175 0 175 -40 0 -40 0 0 -175z"/>
<path d="M6040 2735 l0 -175 40 0 40 0 0 84 c0 86 12 116 45 116 33 0 45 -30
45 -116 l0 -84 41 0 41 0 -4 109 c-2 90 -6 113 -22 130 -26 29 -78 37 -115 18
l-31 -15 0 54 0 54 -40 0 -40 0 0 -175z"/>
<path d="M3073 2815 c-51 -22 -75 -69 -70 -138 4 -75 41 -117 109 -124 92 -11
148 43 148 140 0 63 -23 101 -76 123 -42 17 -70 17 -111 -1z"/>
<path d="M3406 2809 c-21 -17 -26 -18 -26 -5 0 12 -10 16 -35 16 l-35 0 0
-130 0 -130 40 0 40 0 0 90 c0 86 1 91 25 102 44 20 55 -2 55 -103 l0 -89 46
0 47 0 -5 103 c-6 119 -11 133 -49 152 -39 21 -72 19 -103 -6z"/>
<path d="M3976 2809 c-21 -17 -26 -18 -26 -5 0 12 -10 16 -35 16 l-35 0 0
-130 0 -130 40 0 40 0 0 90 c0 86 1 91 25 102 44 20 55 -2 55 -103 l0 -89 46
0 47 0 -5 103 c-6 119 -11 133 -49 152 -39 21 -72 19 -103 -6z"/>
<path d="M4243 2815 c-93 -40 -98 -207 -8 -249 77 -37 185 0 185 63 0 16 -72
13 -94 -4 -26 -19 -32 -19 -56 5 -34 34 -24 40 71 40 l91 0 -7 43 c-9 56 -29
86 -70 103 -43 17 -71 17 -112 -1z"/>
<path d="M4687 2810 c-22 -18 -27 -19 -27 -6 0 12 -10 16 -40 16 l-40 0 0
-180 0 -180 45 0 45 0 0 54 0 53 39 -10 c71 -19 120 18 136 104 21 112 -82
209 -158 149z"/>
<path d="M5813 2815 c-89 -38 -63 -133 42 -155 34 -7 55 -17 55 -25 0 -22 -39
-29 -59 -11 -10 9 -34 16 -54 16 -29 0 -37 -4 -37 -18 0 -34 46 -65 102 -69
70 -5 119 19 132 65 14 49 -16 84 -84 99 -64 14 -80 27 -52 42 21 11 52 5 52
-10 0 -5 18 -9 40 -9 22 0 40 5 40 11 0 24 -24 52 -55 65 -43 17 -81 17 -122
-1z"/>
<path d="M6576 2809 c-21 -17 -26 -18 -26 -5 0 12 -10 16 -35 16 l-35 0 0
-130 0 -130 40 0 40 0 0 90 c0 86 1 91 25 102 44 20 55 -2 55 -103 l0 -89 46
0 47 0 -5 103 c-6 119 -11 133 -49 152 -39 21 -72 19 -103 -6z"/>
<path d="M6833 2820 c-54 -22 -82 -137 -51 -205 23 -50 112 -73 150 -38 17 15
18 15 18 -8 0 -14 -5 -30 -12 -37 -15 -15 -64 -16 -73 -2 -3 6 -24 10 -46 10
-31 0 -39 -4 -39 -18 0 -72 172 -92 228 -27 21 25 22 35 22 176 l0 149 -40 0
c-22 0 -40 -4 -40 -9 0 -6 -12 -3 -27 5 -32 16 -58 17 -90 4z"/>
<path d="M3740 2690 l0 -130 40 0 40 0 0 130 0 130 -40 0 -40 0 0 -130z"/>
<path d="M4890 2714 c0 -103 1 -106 29 -135 33 -33 67 -37 111 -14 17 9 30 11
30 5 0 -5 18 -10 40 -10 l40 0 0 130 0 130 -39 0 -39 0 -3 -86 c-3 -71 -7 -88
-23 -100 -25 -18 -31 -18 -50 2 -12 12 -16 36 -16 100 l0 84 -40 0 -40 0 0
-106z"/>
<path d="M5630 2690 l0 -130 40 0 40 0 0 130 0 130 -40 0 -40 0 0 -130z"/>
<path d="M6340 2690 l0 -130 40 0 40 0 0 130 0 130 -40 0 -40 0 0 -130z"/>
<path d="M3540 2230 c0 -17 7 -20 40 -20 25 0 40 -5 40 -12 0 -7 -8 -61 -19
-120 l-18 -108 24 0 c12 0 23 3 23 8 0 9 29 180 35 209 4 18 13 22 47 25 31 2
44 8 46 21 3 15 -7 17 -107 17 -104 0 -111 -1 -111 -20z"/>
<path d="M3811 2117 c-39 -74 -71 -137 -71 -141 0 -3 9 -6 19 -6 11 0 28 15
41 35 20 32 26 35 70 35 49 0 60 -9 60 -51 0 -14 7 -19 25 -19 22 0 24 3 18
33 -4 17 -16 79 -28 137 -18 91 -24 105 -42 108 -18 3 -32 -18 -92 -131z"/>
<path d="M4100 2228 c-47 -33 -70 -82 -70 -150 0 -46 5 -62 24 -85 21 -24 31
-28 79 -28 63 0 99 24 123 82 25 58 21 64 -43 61 -46 -2 -59 -7 -61 -20 -3
-15 4 -18 32 -18 43 0 45 -8 11 -40 -32 -30 -91 -33 -111 -5 -18 24 -18 76 0
120 15 34 59 65 94 65 20 0 52 -29 52 -48 0 -7 12 -12 26 -12 23 0 25 3 20 28
-11 43 -50 72 -100 72 -28 0 -54 -8 -76 -22z"/>
<path d="M4351 2117 c-39 -74 -71 -137 -71 -141 0 -3 9 -6 19 -6 11 0 28 15
41 35 20 32 26 35 70 35 49 0 60 -9 60 -51 0 -14 7 -19 25 -19 22 0 24 3 18
33 -4 17 -16 79 -28 137 -18 91 -24 105 -42 108 -18 3 -32 -18 -92 -131z"/>
<path d="M4580 2241 c0 -5 16 -43 35 -85 32 -71 34 -80 25 -127 -6 -29 -10
-53 -10 -55 0 -2 11 -4 24 -4 21 0 24 6 30 53 6 43 17 65 65 127 77 101 77
100 47 100 -18 0 -35 -15 -68 -60 -23 -33 -45 -60 -48 -60 -3 0 -16 27 -30 60
-20 48 -29 60 -47 60 -13 0 -23 -4 -23 -9z"/>
<path d="M4837 2230 c-5 -18 0 -20 39 -20 41 0 44 -2 39 -22 -6 -31 -35 -201
-35 -211 0 -5 10 -7 22 -5 21 3 24 13 42 121 l19 117 43 0 c37 0 44 3 44 20 0
19 -7 20 -104 20 -95 0 -104 -2 -109 -20z"/>
<path d="M5102 2110 c-69 -132 -72 -140 -50 -140 17 0 29 10 42 35 18 33 22
35 73 35 46 0 53 -3 53 -19 0 -33 11 -51 31 -51 24 0 24 3 -6 150 -14 68 -25
124 -25 126 0 2 -10 4 -22 4 -19 0 -35 -24 -96 -140z"/>
<path d="M5330 2247 c0 -2 16 -39 36 -82 33 -71 35 -82 29 -136 -7 -55 -6 -59
14 -59 12 0 21 2 21 4 0 2 4 26 10 55 7 39 24 70 70 129 33 43 60 81 60 85 0
4 -10 7 -22 7 -16 0 -36 -18 -67 -61 -24 -33 -46 -57 -49 -54 -4 3 -16 29 -28
58 -18 41 -27 53 -48 55 -14 2 -26 1 -26 -1z"/>
<path d="M5760 2228 c-47 -32 -70 -82 -70 -149 0 -42 5 -63 20 -82 23 -29 74
-43 117 -33 28 8 93 67 93 85 0 21 -41 11 -64 -16 -29 -34 -90 -38 -112 -8
-18 24 -18 77 0 120 28 66 128 87 142 30 4 -18 13 -25 31 -25 22 0 24 3 19 28
-11 43 -50 72 -100 72 -28 0 -54 -8 -76 -22z"/>
<path d="M6087 2243 c-20 -19 -5 -33 36 -33 l44 0 -18 -107 c-23 -134 -23
-133 1 -133 11 0 20 1 20 3 0 1 9 54 20 117 11 63 20 116 20 118 0 1 20 2 45
2 38 0 45 3 45 20 0 19 -7 20 -103 20 -57 0 -107 -3 -110 -7z"/>
<path d="M6320 2247 c0 -2 16 -39 36 -82 33 -71 35 -82 29 -136 -7 -55 -6 -59
14 -59 12 0 21 2 21 4 0 2 4 26 10 55 7 39 24 70 70 129 33 43 60 81 60 85 0
4 -10 7 -22 7 -16 0 -36 -18 -67 -61 -24 -33 -46 -57 -49 -54 -4 3 -16 29 -28
58 -18 41 -27 53 -48 55 -14 2 -26 1 -26 -1z"/>
<path d="M4150 1680 c-11 -11 -20 -29 -20 -40 0 -24 28 -27 36 -5 12 29 40 36
65 16 l22 -18 -21 -34 c-11 -19 -39 -52 -61 -74 -23 -21 -41 -47 -41 -57 0
-16 10 -18 80 -18 63 0 80 3 80 14 0 11 -15 16 -52 18 l-52 3 47 53 c37 41 47
60 47 87 0 46 -29 75 -75 75 -22 0 -43 -8 -55 -20z"/>
<path d="M4367 1689 c-61 -36 -60 -205 1 -238 80 -43 147 42 127 161 -12 72
-74 108 -128 77z"/>
<path d="M4702 1677 c-15 -16 -22 -36 -22 -64 0 -55 37 -87 93 -80 42 6 49 -9
19 -36 -25 -23 -49 -21 -64 3 -7 11 -21 20 -31 20 -27 0 -18 -39 15 -63 41
-30 97 -15 120 33 32 64 21 165 -21 197 -27 21 -85 16 -109 -10z"/>
<path d="M5160 1680 c-11 -11 -20 -29 -20 -40 0 -24 28 -27 36 -5 12 29 40 36
65 16 l22 -18 -21 -34 c-11 -19 -39 -52 -61 -74 -23 -21 -41 -47 -41 -57 0
-16 10 -18 80 -18 63 0 80 3 80 14 0 11 -15 16 -52 18 l-52 3 47 53 c37 41 47
60 47 87 0 46 -29 75 -75 75 -22 0 -43 -8 -55 -20z"/>
<path d="M5373 1685 c-44 -31 -54 -156 -18 -211 18 -27 74 -41 104 -25 37 20
54 67 49 139 -4 55 -8 68 -32 88 -31 28 -72 31 -103 9z m85 -50 c17 -37 15
-107 -4 -133 -20 -29 -54 -25 -72 8 -15 30 -11 112 8 135 20 24 55 19 68 -10z"/>
<path d="M5570 1680 c-11 -11 -20 -29 -20 -40 0 -24 28 -27 36 -5 12 29 40 36
65 16 l22 -18 -21 -34 c-11 -19 -39 -52 -61 -74 -23 -21 -41 -47 -41 -57 0
-16 10 -18 80 -18 63 0 80 3 80 14 0 11 -15 16 -52 18 l-52 3 47 53 c37 41 47
60 47 87 0 46 -29 75 -75 75 -22 0 -43 -8 -55 -20z"/>
<path d="M5783 1685 c-44 -31 -54 -156 -18 -211 18 -27 74 -41 104 -25 37 20
54 67 49 139 -4 55 -8 68 -32 88 -31 28 -72 31 -103 9z m85 -50 c17 -37 15
-107 -4 -133 -20 -29 -54 -25 -72 8 -15 30 -11 112 8 135 20 24 55 19 68 -10z"/>
</g>
</svg>
