<?xml version="1.0" standalone="no"?>
<!DOCTYPE svg PUBLIC "-//W3C//DTD SVG 20010904//EN"
 "http://www.w3.org/TR/2001/REC-SVG-20010904/DTD/svg10.dtd">
<svg version="1.0" xmlns="http://www.w3.org/2000/svg"
 width="1004.000000pt" height="591.000000pt" viewBox="0 0 1004.000000 591.000000"
 preserveAspectRatio="xMidYMid meet">
<metadata>
Created by potrace 1.16, written by Peter Selinger 2001-2019
</metadata>
<g transform="translate(0.000000,591.000000) scale(0.100000,-0.100000)"
fill="#000000" stroke="none">
<path d="M3190 3916 l0 -226 55 0 55 0 0 60 0 60 53 0 c74 0 123 16 165 54 33
31 36 39 40 97 3 55 0 69 -20 99 -38 56 -81 71 -224 78 l-124 5 0 -227z m240
114 c26 -26 27 -91 3 -113 -10 -8 -44 -18 -75 -22 l-58 -7 0 81 0 81 55 0 c42
0 60 -5 75 -20z"/>
<path d="M4334 4086 c-5 -29 -12 -36 -38 -42 -36 -8 -46 -19 -46 -56 0 -23 4
-28 25 -28 24 0 25 -2 25 -77 1 -103 13 -153 46 -181 22 -19 35 -22 88 -20
l61 3 3 51 3 51 -43 -1 -43 -1 -3 88 -3 87 41 0 40 0 0 45 0 45 -40 0 c-39 0
-40 1 -40 35 0 33 -2 35 -35 35 -31 0 -35 -3 -41 -34z"/>
<path d="M6560 4090 c0 -31 -22 -50 -59 -50 -18 0 -21 -6 -21 -40 0 -36 3 -40
25 -40 l25 0 0 -102 c0 -152 24 -183 136 -176 l49 3 3 50 3 50 -43 0 -43 0 -3
88 -3 87 46 0 45 0 0 45 0 45 -45 0 c-45 0 -45 0 -45 35 0 33 -2 35 -35 35
-32 0 -35 -2 -35 -30z"/>
<path d="M3684 4036 c-35 -16 -74 -60 -74 -86 0 -11 14 -21 40 -29 40 -12 42
-11 69 18 32 35 70 40 96 15 31 -32 13 -44 -99 -65 -81 -15 -116 -49 -116
-114 0 -66 31 -95 102 -95 60 0 90 16 119 64 l19 31 0 -42 0 -43 48 0 48 0 -4
123 c-4 143 -13 177 -53 212 -26 21 -40 25 -97 25 -37 -1 -81 -7 -98 -14z"/>
<path d="M4000 3870 l0 -180 54 0 54 0 4 105 c3 92 6 107 25 127 17 16 33 22
63 21 l40 -2 0 55 0 54 -39 0 c-49 0 -86 -30 -100 -80 -9 -33 -9 -32 -10 23
l-1 57 -45 0 -45 0 0 -180z"/>
<path d="M4550 3871 l0 -181 55 0 55 0 -2 178 -3 177 -52 3 -53 3 0 -180z"/>
<path d="M4800 4031 c-104 -56 -114 -254 -16 -323 37 -27 150 -37 196 -18 39
16 80 65 80 95 0 28 -3 30 -51 39 -34 6 -37 4 -49 -24 -22 -53 -97 -53 -125 0
-30 58 -8 154 38 165 32 8 65 -9 77 -40 8 -22 10 -23 52 -11 49 15 58 35 33
72 -41 63 -158 85 -235 45z"/>
<path d="M5110 3870 l0 -180 50 0 50 0 0 180 0 180 -50 0 -50 0 0 -180z"/>
<path d="M5290 3810 l0 -240 50 0 50 0 0 93 c1 87 2 90 16 65 20 -37 43 -48
103 -48 42 0 56 5 85 31 80 69 74 252 -9 317 -20 16 -42 22 -77 22 -60 0 -83
-11 -108 -53 l-20 -32 0 43 0 42 -45 0 -45 0 0 -240z m229 124 c37 -47 20
-154 -28 -169 -51 -16 -108 54 -96 119 14 74 84 101 124 50z"/>
<path d="M5775 4031 c-37 -22 -61 -49 -69 -77 -6 -19 -1 -23 41 -33 37 -10 48
-10 52 0 14 44 85 65 112 33 22 -27 -2 -47 -73 -60 -85 -16 -122 -36 -138 -73
-31 -76 17 -141 103 -141 44 0 54 4 87 38 l38 38 7 -33 c6 -32 8 -33 52 -33
l46 0 -5 133 c-5 147 -18 186 -68 212 -42 22 -147 20 -185 -4z"/>
<path d="M6100 3871 l0 -181 49 0 48 0 5 105 c6 123 22 158 77 163 28 3 33 -1
46 -32 10 -23 15 -70 15 -136 l0 -100 50 0 50 0 0 119 c0 146 -5 174 -40 211
-25 26 -35 30 -85 30 -49 0 -60 -4 -86 -29 -16 -16 -30 -38 -31 -48 0 -10 -4
2 -7 27 -6 45 -6 45 -48 48 l-43 3 0 -180z"/>
<path d="M4166 3245 c-55 -19 -77 -46 -83 -96 -7 -64 19 -93 110 -120 99 -30
113 -42 81 -73 -30 -30 -114 -12 -114 25 0 5 -20 9 -45 9 -52 0 -58 -14 -25
-68 61 -100 265 -75 286 35 13 70 -29 114 -136 143 -69 18 -83 35 -54 64 23
23 62 19 88 -9 17 -18 34 -25 60 -25 31 0 36 3 36 24 0 35 -45 84 -88 96 -48
13 -69 12 -116 -5z"/>
<path d="M2187 3225 c-10 -14 -29 -28 -42 -31 -21 -5 -25 -12 -25 -41 l0 -36
40 6 40 5 0 -129 0 -129 45 0 45 0 0 190 0 190 -42 0 c-34 -1 -47 -6 -61 -25z"/>
<path d="M3235 3238 c-24 -69 -125 -363 -125 -365 0 -2 22 -3 48 -3 48 0 49 0
61 40 l12 40 64 0 64 0 12 -40 c12 -40 13 -40 61 -40 26 0 48 3 47 8 0 4 -28
88 -63 187 l-62 180 -57 3 c-40 2 -59 -1 -62 -10z"/>
<path d="M5830 3060 l0 -190 45 0 45 0 0 53 c0 41 5 58 19 71 19 18 21 16 65
-53 l46 -71 55 0 c43 0 54 3 48 13 -4 7 -36 53 -70 103 l-62 91 65 78 c35 43
67 81 70 86 3 5 -19 9 -49 9 l-55 0 -66 -81 -66 -81 0 81 0 81 -45 0 -45 0 0
-190z"/>
<path d="M2690 3190 c0 -23 -4 -30 -20 -30 -16 0 -20 -7 -20 -35 0 -28 4 -35
20 -35 18 0 20 -7 20 -88 0 -62 4 -94 15 -109 17 -24 71 -39 109 -29 21 5 23
10 17 38 -4 18 -12 34 -19 34 -7 1 -16 2 -22 3 -6 0 -10 34 -10 76 0 73 1 75
25 75 22 0 25 4 25 35 0 31 -3 35 -25 35 -21 0 -25 5 -25 30 0 29 -2 30 -45
30 -43 0 -45 -1 -45 -30z"/>
<path d="M3770 3190 c0 -23 -4 -30 -20 -30 -16 0 -20 -7 -20 -35 0 -28 4 -35
20 -35 19 0 20 -7 20 -94 0 -90 1 -96 26 -115 32 -25 102 -29 110 -6 10 26 -5
66 -24 63 -15 -3 -17 8 -20 75 -3 77 -3 77 23 77 22 0 25 4 25 35 0 31 -3 35
-25 35 -21 0 -25 5 -25 30 0 29 -2 30 -45 30 -43 0 -45 -1 -45 -30z"/>
<path d="M2418 3144 c-33 -17 -48 -43 -48 -82 0 -39 34 -68 100 -84 36 -8 55
-18 55 -28 0 -22 -63 -27 -71 -6 -8 21 -94 23 -94 2 0 -22 37 -62 70 -76 41
-17 125 -8 158 17 21 16 28 30 30 66 3 40 0 48 -22 62 -14 10 -49 22 -78 29
-34 7 -54 17 -56 27 -5 26 34 30 63 7 20 -15 34 -19 60 -14 19 4 35 9 35 11 0
19 -29 59 -51 71 -36 18 -116 17 -151 -2z"/>
<path d="M3520 3015 l0 -145 45 0 45 0 0 89 c0 100 11 121 59 121 23 0 30 6
38 34 6 19 8 37 5 40 -9 10 -62 7 -83 -4 -13 -7 -19 -7 -19 0 0 5 -20 10 -45
10 l-45 0 0 -145z"/>
<path d="M4430 3015 l0 -145 40 0 40 0 0 145 0 145 -40 0 -40 0 0 -145z"/>
<path d="M4570 3015 l0 -145 45 0 45 0 0 95 c0 89 1 95 24 110 19 13 29 14 45
5 19 -10 21 -20 21 -110 l0 -100 45 0 45 0 0 116 c0 114 0 116 -29 145 -34 33
-91 40 -129 13 -20 -14 -22 -14 -22 0 0 12 -11 16 -45 16 l-45 0 0 -145z"/>
<path d="M4900 3015 l0 -145 45 0 45 0 0 145 0 145 -45 0 -45 0 0 -145z"/>
<path d="M5050 3015 l0 -145 40 0 40 0 0 79 c0 44 4 91 9 104 13 33 47 41 72
16 16 -16 19 -33 19 -109 l0 -90 46 0 46 0 -4 113 c-4 119 -13 147 -55 166
-34 16 -85 13 -111 -5 -20 -14 -22 -14 -22 0 0 12 -10 16 -40 16 l-40 0 0
-145z"/>
<path d="M5415 3138 c-75 -59 -72 -213 6 -253 37 -19 89 -19 117 1 21 14 22
14 22 -9 0 -47 -61 -75 -94 -42 -16 17 -63 20 -85 6 -12 -8 -12 -13 3 -36 22
-33 54 -45 122 -45 123 0 144 36 144 250 l0 150 -45 0 c-34 0 -45 -4 -45 -16
0 -14 -2 -14 -22 0 -32 23 -90 20 -123 -6z"/>
<path d="M6254 3150 c-21 -8 -64 -56 -64 -71 0 -4 16 -11 35 -15 27 -5 41 -2
55 11 22 20 64 16 68 -7 2 -13 -6 -18 -35 -23 -105 -17 -142 -51 -129 -118 5
-27 15 -41 36 -52 37 -19 90 -19 118 1 12 8 22 10 22 5 0 -6 18 -11 40 -11
l40 0 0 111 c0 61 -5 119 -11 131 -21 39 -119 61 -175 38z"/>
<path d="M6500 3015 l0 -145 45 0 45 0 0 93 c0 102 7 117 52 117 22 0 31 6 39
27 5 14 8 32 5 40 -8 20 -63 16 -86 -7 l-20 -20 0 20 c0 17 -7 20 -40 20 l-40
0 0 -145z"/>
<path d="M6772 3140 c-40 -25 -57 -62 -33 -72 29 -12 69 -8 75 7 7 20 62 20
70 0 6 -18 -22 -35 -59 -35 -98 0 -148 -88 -86 -151 34 -33 91 -40 129 -13 12
8 22 10 22 5 0 -6 20 -11 46 -11 l46 0 -3 115 c-4 109 -5 116 -31 142 -37 37
-127 44 -176 13z"/>
<path d="M7010 3153 c0 -5 21 -70 47 -145 l48 -138 51 0 51 0 47 134 c25 73
46 139 46 145 0 6 -18 11 -43 11 l-44 0 -28 -97 c-16 -53 -30 -92 -31 -87 -2
5 -15 48 -29 97 l-26 87 -45 0 c-24 0 -44 -3 -44 -7z"/>
<path d="M7396 3145 c-32 -17 -55 -43 -56 -62 0 -21 68 -28 89 -9 22 20 60 21
68 1 8 -22 3 -24 -62 -35 -74 -12 -105 -39 -105 -91 0 -53 26 -80 83 -86 34
-4 54 -1 72 11 14 9 25 12 25 6 0 -5 18 -10 40 -10 l40 0 0 111 c0 61 -5 119
-11 131 -23 43 -127 62 -183 33z"/>
<path d="M7650 3015 l0 -145 40 0 40 0 0 79 c0 44 4 91 9 104 13 33 47 41 72
16 16 -16 19 -33 19 -109 l0 -90 46 0 46 0 -4 113 c-4 119 -13 147 -55 166
-34 16 -85 13 -111 -5 -20 -14 -22 -14 -22 0 0 12 -10 16 -40 16 l-40 0 0
-145z"/>
<path d="M3373 2395 c-40 -74 -73 -137 -73 -140 0 -3 10 -5 23 -5 17 0 28 10
40 36 17 34 18 35 70 32 49 -3 52 -5 57 -33 4 -21 11 -31 28 -33 12 -2 22 0
22 5 0 4 -12 68 -26 141 -24 119 -29 132 -48 132 -17 0 -36 -27 -93 -135z"/>
<path d="M3606 2418 c-10 -62 -20 -125 -23 -140 -5 -23 -2 -28 15 -28 21 0 24
7 38 95 12 83 17 82 39 -5 19 -76 23 -85 44 -85 19 0 33 17 73 85 l50 85 -7
-45 c-19 -136 -19 -130 2 -130 18 0 22 14 42 133 12 72 21 135 21 140 0 4 -10
7 -23 7 -19 0 -35 -20 -87 -111 l-63 -111 -26 109 c-25 100 -28 108 -52 111
-25 3 -25 1 -43 -110z"/>
<path d="M4000 2508 c-47 -33 -70 -82 -70 -150 0 -75 26 -108 90 -115 36 -4
52 0 79 19 61 41 76 71 76 150 0 64 -2 72 -28 94 -37 32 -101 33 -147 2z m119
-44 c50 -64 -5 -178 -86 -178 -42 0 -63 23 -63 69 0 52 20 96 54 116 43 26 71
24 95 -7z"/>
<path d="M4336 2418 c-10 -62 -20 -125 -23 -140 -5 -23 -2 -28 15 -28 24 0 27
8 43 118 l13 83 54 -101 c43 -81 58 -100 76 -100 20 0 23 8 40 113 10 61 20
124 23 140 5 23 2 27 -16 27 -11 0 -21 -1 -22 -2 0 -2 -8 -48 -18 -103 l-17
-100 -46 85 c-26 47 -50 93 -53 103 -4 9 -17 17 -29 17 -20 0 -23 -9 -40 -112z"/>
<path d="M4680 2508 c-47 -33 -70 -82 -70 -150 0 -46 5 -62 24 -85 21 -24 31
-28 79 -28 63 0 99 24 123 82 25 58 21 64 -43 61 -46 -2 -59 -7 -61 -20 -3
-15 4 -18 32 -18 43 0 45 -8 11 -40 -32 -30 -91 -33 -111 -5 -18 24 -18 76 0
120 15 34 59 65 94 65 20 0 52 -29 52 -48 0 -7 12 -12 26 -12 23 0 25 3 20 28
-11 43 -50 72 -100 72 -28 0 -54 -8 -76 -22z"/>
<path d="M4962 2510 c-84 -52 -98 -216 -21 -256 95 -49 199 37 199 163 0 47
-4 59 -29 84 -36 36 -98 40 -149 9z m119 -41 c18 -18 21 -30 16 -72 -4 -42
-10 -56 -41 -84 -43 -39 -68 -42 -101 -8 -30 30 -32 72 -6 124 31 60 93 79
132 40z"/>
<path d="M5196 2418 c-10 -62 -20 -125 -23 -140 -5 -23 -2 -28 15 -28 24 0 27
8 43 118 l13 83 54 -101 c43 -81 58 -100 76 -100 20 0 23 8 40 113 10 61 20
124 23 140 5 23 2 27 -16 27 -11 0 -21 -1 -22 -2 0 -2 -8 -48 -18 -103 l-17
-100 -46 85 c-26 47 -50 93 -53 103 -4 9 -17 17 -29 17 -20 0 -23 -9 -40 -112z"/>
<path d="M5715 2498 c-3 -18 -14 -81 -24 -140 l-18 -108 82 0 c72 0 84 3 102
23 30 32 37 63 20 96 -12 24 -12 32 -1 43 7 7 16 25 19 40 5 21 1 33 -19 52
-22 23 -34 26 -90 26 l-65 0 -6 -32z"/>
<path d="M6017 2515 c-39 -20 -63 -52 -78 -103 -17 -61 -6 -111 32 -146 28
-25 38 -28 77 -23 83 9 134 75 136 174 0 50 -3 58 -32 84 -37 33 -89 38 -135
14z m101 -41 c17 -12 22 -25 22 -60 0 -57 -22 -99 -61 -120 -97 -50 -147 80
-64 163 36 36 68 42 103 17z"/>
<path d="M6263 2395 c-40 -74 -73 -137 -73 -140 0 -3 10 -5 23 -5 17 0 28 10
40 36 17 34 18 35 70 32 49 -3 52 -5 57 -33 4 -21 11 -31 28 -33 12 -2 22 0
22 5 0 4 -12 68 -26 141 -24 119 -29 132 -48 132 -17 0 -36 -27 -93 -135z"/>
<path d="M6552 2510 c-61 -37 -91 -153 -57 -219 37 -72 168 -61 204 17 14 30
14 32 -5 32 -9 0 -32 -13 -51 -30 -41 -36 -66 -38 -98 -5 -31 30 -32 72 -6
124 34 65 120 81 141 26 6 -15 17 -25 30 -25 30 0 25 36 -9 71 -36 36 -98 40
-149 9z"/>
<path d="M4270 1825 c0 -118 1 -125 20 -125 17 0 20 7 20 50 l0 50 55 0 c48 0
55 2 55 20 0 18 -7 20 -55 20 l-55 0 0 35 0 35 60 0 c53 0 60 2 60 20 0 18 -7
20 -80 20 l-80 0 0 -125z"/>
<path d="M4470 1825 l0 -125 80 0 c64 0 80 3 80 15 0 12 -13 15 -60 15 l-60 0
0 35 0 35 55 0 c48 0 55 2 55 20 0 18 -7 20 -55 20 l-55 0 0 35 0 35 60 0 c53
0 60 2 60 20 0 18 -7 20 -80 20 l-80 0 0 -125z"/>
<path d="M4670 1825 l0 -125 68 0 c75 0 87 5 100 40 10 26 -3 80 -18 80 -5 0
-2 13 6 29 11 21 12 36 4 55 -12 32 -45 46 -111 46 l-49 0 0 -125z"/>
<path d="M5000 1930 c-11 -11 -20 -29 -20 -40 0 -24 28 -27 36 -5 12 29 40 36
65 16 l22 -18 -21 -34 c-11 -19 -39 -52 -61 -74 -23 -21 -41 -47 -41 -57 0
-16 10 -18 80 -18 63 0 80 3 80 14 0 11 -15 16 -52 18 l-52 3 47 53 c37 41 47
60 47 87 0 46 -29 75 -75 75 -22 0 -43 -8 -55 -20z"/>
<path d="M5217 1939 c-61 -36 -60 -205 1 -238 80 -43 147 42 127 161 -12 72
-74 108 -128 77z"/>
<path d="M5563 1926 c-25 -21 -28 -31 -31 -100 -4 -73 -3 -76 27 -107 28 -27
37 -31 69 -26 103 17 95 167 -9 167 -19 0 -41 -6 -48 -12 -10 -10 -9 -5 1 22
11 27 21 36 43 38 18 2 31 -2 37 -12 9 -17 48 -22 48 -7 0 4 -9 20 -21 35 -27
34 -77 35 -116 2z"/>
</g>
</svg>
