<?xml version="1.0" standalone="no"?>
<!DOCTYPE svg PUBLIC "-//W3C//DTD SVG 20010904//EN"
 "http://www.w3.org/TR/2001/REC-SVG-20010904/DTD/svg10.dtd">
<svg version="1.0" xmlns="http://www.w3.org/2000/svg"
 width="96.000000pt" height="144.000000pt" viewBox="0 0 96.000000 144.000000"
 preserveAspectRatio="xMidYMid meet">

<g transform="translate(0.000000,144.000000) scale(0.100000,-0.100000)"
fill="#000000" stroke="none">
<path d="M348 1415 c-139 -35 -237 -122 -272 -242 -9 -27 0 -29 131 -38 l101
-6 19 31 c24 42 71 70 131 77 95 11 160 -31 169 -109 8 -73 -3 -78 -261 -113
-231 -31 -325 -115 -326 -291 0 -127 49 -207 160 -258 36 -17 65 -21 150 -21
140 0 196 25 268 120 l23 30 -3 -140 c-4 -157 -12 -185 -67 -222 -89 -60 -231
1 -231 100 l0 27 -131 0 -132 0 6 -60 c6 -73 35 -136 87 -189 161 -165 519
-140 654 46 68 94 70 107 74 516 4 392 -4 510 -37 575 -30 59 -108 123 -182
150 -82 31 -246 39 -331 17z m282 -585 c0 -39 -6 -86 -14 -104 -42 -100 -217
-139 -296 -66 -58 54 -33 150 47 181 15 6 75 19 132 29 57 10 106 21 109 24
16 17 22 -1 22 -64z"/>
</g>
</svg>
